<?xml version="1.0" encoding="UTF-8"?>
<svg version="1.1" xmlns="http://www.w3.org/2000/svg" width="3840" height="2160">
<path d="M0 0 C1.70426651 0.00090637 1.70426651 0.00090637 3.44296265 0.00183105 C23.35632106 0.03039291 43.15310912 0.54256991 63 2.1875 C63.76451477 2.25066406 64.52902954 2.31382813 65.31671143 2.37890625 C145.8105349 9.13033474 224.40255028 28.41000092 381 104.1875 C381.83144531 104.69571289 382.66289062 105.20392578 383.51953125 105.72753906 C409.94726954 121.92409588 435.4025248 139.99294888 459.27636719 159.76367188 C461.71230065 161.77590473 464.17042475 163.7605775 466.625 165.75 C477.74808978 174.87492994 488.5016446 184.35183149 499 194.1875 C498.67 195.1775 498.34 196.1675 498 197.1875 C497.34 197.1875 496.68 197.1875 496 197.1875 C496 197.8475 496 198.5075 496 199.1875 C495.34 199.1875 494.68 199.1875 494 199.1875 C494 199.8475 494 200.5075 494 201.1875 C493.34 201.1875 492.68 201.1875 492 201.1875 C492 201.8475 492 202.5075 492 203.1875 C491.34 203.1875 490.68 203.1875 490 203.1875 C490 203.8475 490 204.5075 490 205.1875 C489.34 205.1875 488.68 205.1875 488 205.1875 C488 205.8475 488 206.5075 488 207.1875 C487.34 207.1875 486.68 207.1875 486 207.1875 C486 207.8475 486 208.5075 486 209.1875 C485.34 209.1875 484.68 209.1875 484 209.1875 C484 209.8475 484 210.5075 484 211.1875 C483.34 211.1875 482.68 211.1875 482 211.1875 C482 211.8475 482 212.5075 482 213.1875 C481.34 213.1875 480.68 213.1875 480 213.1875 C480 213.8475 480 214.5075 480 215.1875 C479.34 215.1875 478.68 215.1875 478 215.1875 C478 215.8475 478 216.5075 478 217.1875 C477.34 217.1875 476.68 217.1875 476 217.1875 C476 217.8475 476 218.5075 476 219.1875 C475.34 219.1875 474.68 219.1875 474 219.1875 C474 219.8475 474 220.5075 474 221.1875 C473.34 221.1875 472.68 221.1875 472 221.1875 C472 221.8475 472 222.5075 472 223.1875 C471.34 223.1875 470.68 223.1875 470 223.1875 C470 223.8475 470 224.5075 470 225.1875 C469.34 225.1875 468.68 225.1875 468 225.1875 C468 225.8475 468 226.5075 468 227.1875 C467.34 227.1875 466.68 227.1875 466 227.1875 C466 227.8475 466 228.5075 466 229.1875 C465.34 229.1875 464.68 229.1875 464 229.1875 C464 229.8475 464 230.5075 464 231.1875 C463.34 231.1875 462.68 231.1875 462 231.1875 C462 231.8475 462 232.5075 462 233.1875 C461.34 233.1875 460.68 233.1875 460 233.1875 C460 233.8475 460 234.5075 460 235.1875 C459.34 235.1875 458.68 235.1875 458 235.1875 C458 235.8475 458 236.5075 458 237.1875 C457.34 237.1875 456.68 237.1875 456 237.1875 C456 237.8475 456 238.5075 456 239.1875 C455.34 239.1875 454.68 239.1875 454 239.1875 C454 239.8475 454 240.5075 454 241.1875 C453.34 241.1875 452.68 241.1875 452 241.1875 C452 241.8475 452 242.5075 452 243.1875 C451.34 243.1875 450.68 243.1875 450 243.1875 C450 243.8475 450 244.5075 450 245.1875 C449.34 245.1875 448.68 245.1875 448 245.1875 C448 245.8475 448 246.5075 448 247.1875 C447.34 247.1875 446.68 247.1875 446 247.1875 C446 247.8475 446 248.5075 446 249.1875 C445.34 249.1875 444.68 249.1875 444 249.1875 C444 249.8475 444 250.5075 444 251.1875 C443.34 251.1875 442.68 251.1875 442 251.1875 C442 251.8475 442 252.5075 442 253.1875 C441.34 253.1875 440.68 253.1875 440 253.1875 C440 253.8475 440 254.5075 440 255.1875 C439.34 255.1875 438.68 255.1875 438 255.1875 C438 255.8475 438 256.5075 438 257.1875 C437.34 257.1875 436.68 257.1875 436 257.1875 C436 257.8475 436 258.5075 436 259.1875 C435.34 259.1875 434.68 259.1875 434 259.1875 C434 259.8475 434 260.5075 434 261.1875 C433.34 261.1875 432.68 261.1875 432 261.1875 C432 261.8475 432 262.5075 432 263.1875 C431.34 263.1875 430.68 263.1875 430 263.1875 C430 263.8475 430 264.5075 430 265.1875 C429.34 265.1875 428.68 265.1875 428 265.1875 C428 265.8475 428 266.5075 428 267.1875 C427.34 267.1875 426.68 267.1875 426 267.1875 C426 267.8475 426 268.5075 426 269.1875 C425.34 269.1875 424.68 269.1875 424 269.1875 C424 269.8475 424 270.5075 424 271.1875 C423.34 271.1875 422.68 271.1875 422 271.1875 C422 271.8475 422 272.5075 422 273.1875 C421.34 273.1875 420.68 273.1875 420 273.1875 C420 273.8475 420 274.5075 420 275.1875 C419.34 275.1875 418.68 275.1875 418 275.1875 C418 275.8475 418 276.5075 418 277.1875 C417.34 277.1875 416.68 277.1875 416 277.1875 C416 277.8475 416 278.5075 416 279.1875 C415.34 279.1875 414.68 279.1875 414 279.1875 C414 279.8475 414 280.5075 414 281.1875 C413.34 281.1875 412.68 281.1875 412 281.1875 C412 281.8475 412 282.5075 412 283.1875 C411.34 283.1875 410.68 283.1875 410 283.1875 C410 283.8475 410 284.5075 410 285.1875 C409.34 285.1875 408.68 285.1875 408 285.1875 C408 285.8475 408 286.5075 408 287.1875 C407.34 287.1875 406.68 287.1875 406 287.1875 C406 287.8475 406 288.5075 406 289.1875 C405.34 289.1875 404.68 289.1875 404 289.1875 C404 289.8475 404 290.5075 404 291.1875 C403.34 291.1875 402.68 291.1875 402 291.1875 C402 291.8475 402 292.5075 402 293.1875 C401.34 293.1875 400.68 293.1875 400 293.1875 C400 293.8475 400 294.5075 400 295.1875 C399.34 295.1875 398.68 295.1875 398 295.1875 C398 295.8475 398 296.5075 398 297.1875 C397.34 297.1875 396.68 297.1875 396 297.1875 C396 297.8475 396 298.5075 396 299.1875 C395.34 299.1875 394.68 299.1875 394 299.1875 C394 299.8475 394 300.5075 394 301.1875 C393.34 301.1875 392.68 301.1875 392 301.1875 C392 301.8475 392 302.5075 392 303.1875 C391.34 303.1875 390.68 303.1875 390 303.1875 C390 303.8475 390 304.5075 390 305.1875 C389.34 305.1875 388.68 305.1875 388 305.1875 C388 305.8475 388 306.5075 388 307.1875 C387.34 307.1875 386.68 307.1875 386 307.1875 C386 307.8475 386 308.5075 386 309.1875 C385.34 309.1875 384.68 309.1875 384 309.1875 C384 309.8475 384 310.5075 384 311.1875 C383.34 311.1875 382.68 311.1875 382 311.1875 C382 311.8475 382 312.5075 382 313.1875 C381.34 313.1875 380.68 313.1875 380 313.1875 C380 313.8475 380 314.5075 380 315.1875 C379.34 315.1875 378.68 315.1875 378 315.1875 C378 315.8475 378 316.5075 378 317.1875 C377.34 317.1875 376.68 317.1875 376 317.1875 C376 317.8475 376 318.5075 376 319.1875 C375.34 319.1875 374.68 319.1875 374 319.1875 C374 319.8475 374 320.5075 374 321.1875 C373.34 321.1875 372.68 321.1875 372 321.1875 C372 321.8475 372 322.5075 372 323.1875 C371.34 323.1875 370.68 323.1875 370 323.1875 C370 323.8475 370 324.5075 370 325.1875 C369.34 325.1875 368.68 325.1875 368 325.1875 C368 325.8475 368 326.5075 368 327.1875 C367.34 327.1875 366.68 327.1875 366 327.1875 C366 327.8475 366 328.5075 366 329.1875 C365.34 329.1875 364.68 329.1875 364 329.1875 C364 329.8475 364 330.5075 364 331.1875 C363.34 331.1875 362.68 331.1875 362 331.1875 C362 331.8475 362 332.5075 362 333.1875 C361.34 333.1875 360.68 333.1875 360 333.1875 C360 333.8475 360 334.5075 360 335.1875 C359.34 335.1875 358.68 335.1875 358 335.1875 C358 335.8475 358 336.5075 358 337.1875 C357.34 337.1875 356.68 337.1875 356 337.1875 C356 337.8475 356 338.5075 356 339.1875 C355.34 339.1875 354.68 339.1875 354 339.1875 C354 339.8475 354 340.5075 354 341.1875 C353.34 341.1875 352.68 341.1875 352 341.1875 C352 341.8475 352 342.5075 352 343.1875 C351.34 343.1875 350.68 343.1875 350 343.1875 C350 343.8475 350 344.5075 350 345.1875 C349.34 345.1875 348.68 345.1875 348 345.1875 C348 345.8475 348 346.5075 348 347.1875 C347.34 347.1875 346.68 347.1875 346 347.1875 C346 347.8475 346 348.5075 346 349.1875 C345.34 349.1875 344.68 349.1875 344 349.1875 C344 349.8475 344 350.5075 344 351.1875 C343.34 351.1875 342.68 351.1875 342 351.1875 C342 351.8475 342 352.5075 342 353.1875 C341.34 353.1875 340.68 353.1875 340 353.1875 C340 353.8475 340 354.5075 340 355.1875 C339.34 355.1875 338.68 355.1875 338 355.1875 C338 355.8475 338 356.5075 338 357.1875 C337.34 357.1875 336.68 357.1875 336 357.1875 C336 357.8475 336 358.5075 336 359.1875 C335.34 359.1875 334.68 359.1875 334 359.1875 C334 359.8475 334 360.5075 334 361.1875 C333.34 361.1875 332.68 361.1875 332 361.1875 C332 361.8475 332 362.5075 332 363.1875 C331.34 363.1875 330.68 363.1875 330 363.1875 C329.62846298 364.04701263 329.62846298 364.04701263 329.24942017 364.92388916 C327.80397834 367.54263814 326.13094551 369.29662164 324.00927734 371.40527344 C323.18857758 372.22582214 322.36787781 373.04637085 321.52230835 373.89178467 C320.63580597 374.76796448 319.74930359 375.64414429 318.8359375 376.546875 C317.47512558 377.90344208 317.47512558 377.90344208 316.08682251 379.28741455 C313.68115581 381.68546458 311.26954264 384.07744618 308.85662842 386.46820068 C306.39297656 388.91135171 303.93501423 391.36021206 301.4765625 393.80859375 C296.65626427 398.60683788 291.83030157 403.39932732 287 408.1875 C283.27731774 406.78510925 281.07321824 405.56688993 278.375 402.625 C273.60421316 397.67619873 268.37669229 393.45824911 263 389.1875 C261.96185443 388.34682957 260.92410339 387.50567173 259.88671875 386.6640625 C217.50749679 352.53897002 168.32483575 327.84832662 116 313.1875 C115.01644531 312.91067383 114.03289063 312.63384766 113.01953125 312.34863281 C79.91355194 303.1881332 45.30390395 298.96127227 11 298.1875 C10.15050781 298.16558594 9.30101562 298.14367187 8.42578125 298.12109375 C-36.73795661 297.09619803 -81.85829001 303.98314021 -125 317.1875 C-125.98774414 317.48881836 -126.97548828 317.79013672 -127.99316406 318.10058594 C-181.15388858 334.54473804 -230.48769292 362.24563405 -273.22949219 397.72558594 C-274.87412859 399.08356757 -276.53059597 400.42457071 -278.1953125 401.7578125 C-282.83285012 405.48553347 -287.22148751 409.25985943 -291.35546875 413.5390625 C-293.00264502 415.19015131 -294.71783942 416.68392127 -296.5 418.1875 C-306.01682405 426.40064952 -314.89853658 435.58513388 -323 445.1875 C-323.98124971 446.30758943 -324.96453822 447.4258942 -325.94921875 448.54296875 C-332.96794607 456.52332187 -339.67248683 464.64675504 -346 473.1875 C-346.48404297 473.83493164 -346.96808594 474.48236328 -347.46679688 475.14941406 C-400.69360788 546.53240713 -433.42991651 633.77985337 -433.93359375 806.9140625 C-426.33773125 856.77317521 -411.15372975 905.28461986 -388.05664062 950.13183594 C-387.32934101 951.5467765 -386.60696088 952.96425306 -385.88867188 954.38378906 C-376.13508342 973.65166473 -364.76117414 991.77486114 -352 1009.1875 C-351.50113281 1009.87183105 -351.00226563 1010.55616211 -350.48828125 1011.26123047 C-344.09508132 1020.00668422 -337.4389381 1028.4387787 -330.34033203 1036.62060547 C-329.05491121 1038.12330689 -327.805802 1039.65684122 -326.55859375 1041.19140625 C-319.48186014 1049.84810579 -311.64888908 1057.72693393 -303.75 1065.625 C-303.18256073 1066.19334564 -302.61512146 1066.76169128 -302.03048706 1067.34725952 C-295.86820243 1073.50843197 -289.66723638 1079.56764721 -283 1085.1875 C-281.94360107 1086.09978662 -280.88759275 1087.01252581 -279.83203125 1087.92578125 C-251.29315093 1112.25582282 -219.79538374 1132.8185723 -186.05273438 1149.18554688 C-183.95947211 1150.20728193 -181.87834709 1151.25136055 -179.796875 1152.296875 C-98.55365299 1192.55828551 -3.65779898 1200.46152632 153 1169.1875 C154.01126953 1168.86088379 155.02253906 1168.53426758 156.06445312 1168.19775391 C199.5775258 1153.89314852 240.0270566 1131.451196 276 1103.1875 C276.98871094 1102.41148438 277.97742187 1101.63546875 278.99609375 1100.8359375 C284.92852155 1096.07316568 290.55098959 1091.01893479 296.12109375 1085.84375 C299.47776996 1082.74668104 302.90429985 1079.7371068 306.35546875 1076.74609375 C308.10161568 1075.26889976 308.10161568 1075.26889976 309 1073.1875 C309.66 1073.1875 310.32 1073.1875 311 1073.1875 C311.25652344 1072.60097656 311.51304688 1072.01445313 311.77734375 1071.41015625 C313.11173896 1068.98437071 314.54485328 1067.51221299 316.5625 1065.625 C320.95573328 1061.32607584 324.82029494 1056.73472939 328.63085938 1051.91601562 C329.61229673 1050.67696846 330.5985378 1049.44172042 331.58789062 1048.20898438 C340.09024322 1037.60776531 347.96210462 1026.81696349 355 1015.1875 C355.47646973 1014.40068848 355.95293945 1013.61387695 356.44384766 1012.80322266 C378.06847424 976.74317812 390.8401665 938.82683401 401 898.1875 C268.67 898.1875 136.34 898.1875 0 898.1875 C-0.020625 850.87375 -0.04125 803.56 -0.0625 754.8125 C-0.071604 739.84729004 -0.08070801 724.88208008 -0.09008789 709.46337891 C-0.09460449 691.25463867 -0.09460449 691.25463867 -0.09544373 682.74301147 C-0.09637917 676.7705954 -0.10005958 670.79818859 -0.10557556 664.82577515 C-0.11192084 657.94532338 -0.11484066 651.06488057 -0.11344495 644.18442585 C-0.11284001 640.66141939 -0.11382888 637.13843295 -0.11921513 633.61543012 C-0.12414448 629.85148305 -0.12300638 626.087587 -0.12025452 622.32363892 C-0.12462351 620.65779786 -0.12462351 620.65779786 -0.12908077 618.95830345 C-0.1270899 617.95427105 -0.12509903 616.95023865 -0.12304783 615.91578102 C-0.12361741 614.60916336 -0.12361741 614.60916336 -0.1241985 613.27614939 C0 611.1875 0 611.1875 1 609.1875 C232.33 609.1875 463.66 609.1875 702 609.1875 C704.49317384 622.27666268 706.87542231 635.18820002 708.5625 648.375 C708.71833557 649.57168304 708.71833557 649.57168304 708.87731934 650.7925415 C712.40311704 677.96827443 714.73128855 705.31669843 715.50268555 732.71240234 C715.5619018 734.79149703 715.62736678 736.87032945 715.69335938 738.94921875 C716.2875723 758.60625801 716.03797796 778.22705788 715.25 797.875 C715.20709839 798.94854736 715.16419678 800.02209473 715.11999512 801.12817383 C711.67356664 884.87114993 696.15538551 967.22434732 588 1201.1875 C587.09755893 1202.46998361 586.19521169 1203.75253325 585.29296875 1205.03515625 C568.91813969 1228.21217111 551.09878719 1250.20749104 532 1271.1875 C531.21592773 1272.05640869 530.43185547 1272.92531738 529.62402344 1273.82055664 C523.09963768 1281.0093716 516.37848536 1287.96536407 509.5012207 1294.81665039 C507.79976222 1296.51269726 506.10378737 1298.21409821 504.40820312 1299.91601562 C498.77290845 1305.55474555 493.07863159 1311.02289359 487 1316.1875 C485.39231627 1317.64195517 483.78760285 1319.09970895 482.1875 1320.5625 C477.92254692 1324.40678245 473.5513915 1328.08276905 469.0859375 1331.69140625 C466.85060183 1333.49948156 464.62811795 1335.31862763 462.4140625 1337.15234375 C444.76918937 1351.71889276 426.16669362 1364.70670993 407 1377.1875 C406.14873535 1377.74211914 405.2974707 1378.29673828 404.42041016 1378.86816406 C385.81964584 1390.93009314 366.53692501 1401.66168277 346.80273438 1411.74804688 C344.16669091 1413.10188941 341.54353246 1414.47793957 338.921875 1415.859375 C263.99373648 1454.88158513 178.55335859 1475.94068239 95 1485.1875 C94.15046753 1485.28224609 93.30093506 1485.37699219 92.42565918 1485.47460938 C63.62953788 1488.66125716 34.96553625 1490.01259713 6 1490.1875 C5.29821625 1490.19198151 4.5964325 1490.19646301 3.87338257 1490.20108032 C-78.22016863 1490.65235554 -160.02957 1477.11482965 -336.61450195 1408.84375 C-338.02735474 1408.12445312 -338.02735474 1408.12445312 -339.46875 1407.390625 C-340.29826172 1406.96426758 -341.12777344 1406.53791016 -341.98242188 1406.09863281 C-343.93483005 1405.05030837 -343.93483005 1405.05030837 -346 1405.1875 C-346 1404.5275 -346 1403.8675 -346 1403.1875 C-346.67933594 1402.93097656 -347.35867188 1402.67445312 -348.05859375 1402.41015625 C-375.1185764 1391.16211565 -400.02257212 1372.82568933 -424 1356.1875 C-425.6340879 1355.06246124 -427.26819948 1353.93745688 -428.90234375 1352.8125 C-443.12510802 1342.95773379 -456.67927291 1332.22229889 -470 1321.1875 C-471.83239592 1319.686355 -473.66574747 1318.18637584 -475.5 1316.6875 C-476.84964844 1315.58148437 -476.84964844 1315.58148437 -478.2265625 1314.453125 C-480.13342871 1312.8954033 -482.04517299 1311.34364001 -483.9609375 1309.796875 C-484.92257812 1309.01828125 -485.88421875 1308.2396875 -486.875 1307.4375 C-488.17050781 1306.39335937 -488.17050781 1306.39335937 -489.4921875 1305.328125 C-492.13929117 1303.06860348 -494.56966333 1300.67750124 -497 1298.1875 C-500.3294477 1294.79071515 -503.64218608 1291.4530505 -507.2890625 1288.39453125 C-513.49337432 1282.99499872 -519.23274782 1277.10344236 -525.03637695 1271.28149414 C-527.05764268 1269.2548702 -529.08419574 1267.23364453 -531.11132812 1265.21289062 C-542.83859806 1253.49094507 -542.83859806 1253.49094507 -547.75585938 1247.63989258 C-548.90749996 1246.29548327 -550.16960927 1245.04788071 -551.4375 1243.8125 C-553 1242.1875 -553 1242.1875 -553 1240.1875 C-553.66 1240.1875 -554.32 1240.1875 -555 1240.1875 C-560 1234.71130952 -560 1234.71130952 -560 1232.1875 C-560.66 1232.1875 -561.32 1232.1875 -562 1232.1875 C-563.59375 1230.421875 -563.59375 1230.421875 -565.5 1227.9375 C-568.49067849 1224.09847824 -571.54035893 1220.3368809 -574.6875 1216.625 C-580.45016189 1209.72740164 -585.90546414 1202.61098749 -591.31005859 1195.43066406 C-592.41115274 1193.96911349 -593.51549003 1192.50999882 -594.62353516 1191.05371094 C-623.05776249 1153.65156733 -646.86729005 1113.08512347 -668 1071.1875 C-668.51272461 1070.17284668 -669.02544922 1069.15819336 -669.55371094 1068.11279297 C-707.65486562 992.17077126 -730.04411335 908.81488152 -744 732.1875 C-743.97808594 731.46230164 -743.95617188 730.73710327 -743.93359375 729.9899292 C-741.41386122 649.02072793 -727.20388641 570.53522625 -671 425.1875 C-670.68633484 424.53825562 -670.37266968 423.88901123 -670.04949951 423.22009277 C-661.20576303 404.94487408 -651.99524625 387.05317605 -641.48583984 369.66845703 C-640.16339877 367.46033246 -638.87796977 365.2376227 -637.61328125 362.99609375 C-632.16649561 353.383282 -626.12406167 344.18990224 -620 335 C-619.58079285 334.37019226 -619.16158569 333.74038452 -618.72967529 333.0914917 C-610.82241275 321.23272526 -602.64450817 309.56970813 -594.0625 298.1875 C-593.56435791 297.52580811 -593.06621582 296.86411621 -592.55297852 296.18237305 C-584.46995244 285.4812077 -576.15186518 275.02106348 -567.41796875 264.84375 C-565.95988526 263.14064422 -564.51053148 261.43040726 -563.0625 259.71875 C-557.52083317 253.18611126 -551.87456489 246.7808943 -546.00805664 240.53710938 C-543.81578027 238.19686476 -541.74349199 235.85557503 -539.78125 233.31640625 C-539.1934375 232.61386719 -538.605625 231.91132813 -538 231.1875 C-537.34 231.1875 -536.68 231.1875 -536 231.1875 C-535.76748535 230.62973877 -535.5349707 230.07197754 -535.29541016 229.49731445 C-533.66376361 226.58796504 -531.63827874 224.58401509 -529.2734375 222.23046875 C-528.8069278 221.76441727 -528.34041809 221.29836578 -527.85977173 220.81819153 C-526.8719326 219.83336655 -525.88167105 218.85096619 -524.88916016 217.87084961 C-523.39566953 216.39541957 -521.9101425 214.9123426 -520.42578125 213.42773438 C-515.65368553 208.67392293 -510.8312521 204.02511858 -505.69189453 199.66723633 C-503.87770448 198.08053995 -502.18736729 196.4077756 -500.5 194.6875 C-496.83703374 190.97536641 -492.95765399 187.58069118 -489 184.1875 C-487.9566862 183.28034461 -486.91374621 182.37275919 -485.87109375 181.46484375 C-478.91335692 175.427605 -471.8276025 169.60858957 -464.55078125 163.9609375 C-461.53436088 161.61732774 -458.56439913 159.22111471 -455.60058594 156.81152344 C-429.60906409 135.75770495 -401.08568213 116.68945085 -372 100.1875 C-371.00967773 99.62385742 -370.01935547 99.06021484 -368.99902344 98.47949219 C-362.59387489 94.84350868 -356.16671579 91.24940964 -349.71875 87.68994141 C-347.49543962 86.46129089 -345.27798969 85.223116 -343.0625 83.98046875 C-331.52743213 77.63885158 -319.51107454 72.24810211 -307.53662109 66.79833984 C-305.30576574 65.78224267 -303.07667129 64.76226211 -300.85009766 63.73681641 C-282.2778867 55.19608902 -263.24429725 48.04311789 -244 41.1875 C-242.80616699 40.76194824 -241.61233398 40.33639648 -240.38232422 39.89794922 C-177.79472142 17.82696078 -111.23348488 4.9235248 -45 1.1875 C-43.98329224 1.12554947 -43.98329224 1.12554947 -42.94604492 1.06234741 C-28.62870662 0.19602777 -14.34149635 -0.01420536 0 0 Z " fill="#35A752" transform="translate(1934,48.8125)"/>
<path d="M0 0 C1.70426651 0.00090637 1.70426651 0.00090637 3.44296265 0.00183105 C23.35632106 0.03039291 43.15310912 0.54256991 63 2.1875 C63.76451477 2.25066406 64.52902954 2.31382813 65.31671143 2.37890625 C145.8105349 9.13033474 224.40255028 28.41000092 381 104.1875 C381.83144531 104.69571289 382.66289062 105.20392578 383.51953125 105.72753906 C409.94726954 121.92409588 435.4025248 139.99294888 459.27636719 159.76367188 C461.71230065 161.77590473 464.17042475 163.7605775 466.625 165.75 C477.74808978 174.87492994 488.5016446 184.35183149 499 194.1875 C498.67 195.1775 498.34 196.1675 498 197.1875 C497.34 197.1875 496.68 197.1875 496 197.1875 C496 197.8475 496 198.5075 496 199.1875 C495.34 199.1875 494.68 199.1875 494 199.1875 C494 199.8475 494 200.5075 494 201.1875 C493.34 201.1875 492.68 201.1875 492 201.1875 C492 201.8475 492 202.5075 492 203.1875 C491.34 203.1875 490.68 203.1875 490 203.1875 C490 203.8475 490 204.5075 490 205.1875 C489.34 205.1875 488.68 205.1875 488 205.1875 C488 205.8475 488 206.5075 488 207.1875 C487.34 207.1875 486.68 207.1875 486 207.1875 C486 207.8475 486 208.5075 486 209.1875 C485.34 209.1875 484.68 209.1875 484 209.1875 C484 209.8475 484 210.5075 484 211.1875 C483.34 211.1875 482.68 211.1875 482 211.1875 C482 211.8475 482 212.5075 482 213.1875 C481.34 213.1875 480.68 213.1875 480 213.1875 C480 213.8475 480 214.5075 480 215.1875 C479.34 215.1875 478.68 215.1875 478 215.1875 C478 215.8475 478 216.5075 478 217.1875 C477.34 217.1875 476.68 217.1875 476 217.1875 C476 217.8475 476 218.5075 476 219.1875 C475.34 219.1875 474.68 219.1875 474 219.1875 C474 219.8475 474 220.5075 474 221.1875 C473.34 221.1875 472.68 221.1875 472 221.1875 C472 221.8475 472 222.5075 472 223.1875 C471.34 223.1875 470.68 223.1875 470 223.1875 C470 223.8475 470 224.5075 470 225.1875 C469.34 225.1875 468.68 225.1875 468 225.1875 C468 225.8475 468 226.5075 468 227.1875 C467.34 227.1875 466.68 227.1875 466 227.1875 C466 227.8475 466 228.5075 466 229.1875 C465.34 229.1875 464.68 229.1875 464 229.1875 C464 229.8475 464 230.5075 464 231.1875 C463.34 231.1875 462.68 231.1875 462 231.1875 C462 231.8475 462 232.5075 462 233.1875 C461.34 233.1875 460.68 233.1875 460 233.1875 C460 233.8475 460 234.5075 460 235.1875 C459.34 235.1875 458.68 235.1875 458 235.1875 C458 235.8475 458 236.5075 458 237.1875 C457.34 237.1875 456.68 237.1875 456 237.1875 C456 237.8475 456 238.5075 456 239.1875 C455.34 239.1875 454.68 239.1875 454 239.1875 C454 239.8475 454 240.5075 454 241.1875 C453.34 241.1875 452.68 241.1875 452 241.1875 C452 241.8475 452 242.5075 452 243.1875 C451.34 243.1875 450.68 243.1875 450 243.1875 C450 243.8475 450 244.5075 450 245.1875 C449.34 245.1875 448.68 245.1875 448 245.1875 C448 245.8475 448 246.5075 448 247.1875 C447.34 247.1875 446.68 247.1875 446 247.1875 C446 247.8475 446 248.5075 446 249.1875 C445.34 249.1875 444.68 249.1875 444 249.1875 C444 249.8475 444 250.5075 444 251.1875 C443.34 251.1875 442.68 251.1875 442 251.1875 C442 251.8475 442 252.5075 442 253.1875 C441.34 253.1875 440.68 253.1875 440 253.1875 C440 253.8475 440 254.5075 440 255.1875 C439.34 255.1875 438.68 255.1875 438 255.1875 C438 255.8475 438 256.5075 438 257.1875 C437.34 257.1875 436.68 257.1875 436 257.1875 C436 257.8475 436 258.5075 436 259.1875 C435.34 259.1875 434.68 259.1875 434 259.1875 C434 259.8475 434 260.5075 434 261.1875 C433.34 261.1875 432.68 261.1875 432 261.1875 C432 261.8475 432 262.5075 432 263.1875 C431.34 263.1875 430.68 263.1875 430 263.1875 C430 263.8475 430 264.5075 430 265.1875 C429.34 265.1875 428.68 265.1875 428 265.1875 C428 265.8475 428 266.5075 428 267.1875 C427.34 267.1875 426.68 267.1875 426 267.1875 C426 267.8475 426 268.5075 426 269.1875 C425.34 269.1875 424.68 269.1875 424 269.1875 C424 269.8475 424 270.5075 424 271.1875 C423.34 271.1875 422.68 271.1875 422 271.1875 C422 271.8475 422 272.5075 422 273.1875 C421.34 273.1875 420.68 273.1875 420 273.1875 C420 273.8475 420 274.5075 420 275.1875 C419.34 275.1875 418.68 275.1875 418 275.1875 C418 275.8475 418 276.5075 418 277.1875 C417.34 277.1875 416.68 277.1875 416 277.1875 C416 277.8475 416 278.5075 416 279.1875 C415.34 279.1875 414.68 279.1875 414 279.1875 C414 279.8475 414 280.5075 414 281.1875 C413.34 281.1875 412.68 281.1875 412 281.1875 C412 281.8475 412 282.5075 412 283.1875 C411.34 283.1875 410.68 283.1875 410 283.1875 C410 283.8475 410 284.5075 410 285.1875 C409.34 285.1875 408.68 285.1875 408 285.1875 C408 285.8475 408 286.5075 408 287.1875 C407.34 287.1875 406.68 287.1875 406 287.1875 C406 287.8475 406 288.5075 406 289.1875 C405.34 289.1875 404.68 289.1875 404 289.1875 C404 289.8475 404 290.5075 404 291.1875 C403.34 291.1875 402.68 291.1875 402 291.1875 C402 291.8475 402 292.5075 402 293.1875 C401.34 293.1875 400.68 293.1875 400 293.1875 C400 293.8475 400 294.5075 400 295.1875 C399.34 295.1875 398.68 295.1875 398 295.1875 C398 295.8475 398 296.5075 398 297.1875 C397.34 297.1875 396.68 297.1875 396 297.1875 C396 297.8475 396 298.5075 396 299.1875 C395.34 299.1875 394.68 299.1875 394 299.1875 C394 299.8475 394 300.5075 394 301.1875 C393.34 301.1875 392.68 301.1875 392 301.1875 C392 301.8475 392 302.5075 392 303.1875 C391.34 303.1875 390.68 303.1875 390 303.1875 C390 303.8475 390 304.5075 390 305.1875 C389.34 305.1875 388.68 305.1875 388 305.1875 C388 305.8475 388 306.5075 388 307.1875 C387.34 307.1875 386.68 307.1875 386 307.1875 C386 307.8475 386 308.5075 386 309.1875 C385.34 309.1875 384.68 309.1875 384 309.1875 C384 309.8475 384 310.5075 384 311.1875 C383.34 311.1875 382.68 311.1875 382 311.1875 C382 311.8475 382 312.5075 382 313.1875 C381.34 313.1875 380.68 313.1875 380 313.1875 C380 313.8475 380 314.5075 380 315.1875 C379.34 315.1875 378.68 315.1875 378 315.1875 C378 315.8475 378 316.5075 378 317.1875 C377.34 317.1875 376.68 317.1875 376 317.1875 C376 317.8475 376 318.5075 376 319.1875 C375.34 319.1875 374.68 319.1875 374 319.1875 C374 319.8475 374 320.5075 374 321.1875 C373.34 321.1875 372.68 321.1875 372 321.1875 C372 321.8475 372 322.5075 372 323.1875 C371.34 323.1875 370.68 323.1875 370 323.1875 C370 323.8475 370 324.5075 370 325.1875 C369.34 325.1875 368.68 325.1875 368 325.1875 C368 325.8475 368 326.5075 368 327.1875 C367.34 327.1875 366.68 327.1875 366 327.1875 C366 327.8475 366 328.5075 366 329.1875 C365.34 329.1875 364.68 329.1875 364 329.1875 C364 329.8475 364 330.5075 364 331.1875 C363.34 331.1875 362.68 331.1875 362 331.1875 C362 331.8475 362 332.5075 362 333.1875 C361.34 333.1875 360.68 333.1875 360 333.1875 C360 333.8475 360 334.5075 360 335.1875 C359.34 335.1875 358.68 335.1875 358 335.1875 C358 335.8475 358 336.5075 358 337.1875 C357.34 337.1875 356.68 337.1875 356 337.1875 C356 337.8475 356 338.5075 356 339.1875 C355.34 339.1875 354.68 339.1875 354 339.1875 C354 339.8475 354 340.5075 354 341.1875 C353.34 341.1875 352.68 341.1875 352 341.1875 C352 341.8475 352 342.5075 352 343.1875 C351.34 343.1875 350.68 343.1875 350 343.1875 C350 343.8475 350 344.5075 350 345.1875 C349.34 345.1875 348.68 345.1875 348 345.1875 C348 345.8475 348 346.5075 348 347.1875 C347.34 347.1875 346.68 347.1875 346 347.1875 C346 347.8475 346 348.5075 346 349.1875 C345.34 349.1875 344.68 349.1875 344 349.1875 C344 349.8475 344 350.5075 344 351.1875 C343.34 351.1875 342.68 351.1875 342 351.1875 C342 351.8475 342 352.5075 342 353.1875 C341.34 353.1875 340.68 353.1875 340 353.1875 C340 353.8475 340 354.5075 340 355.1875 C339.34 355.1875 338.68 355.1875 338 355.1875 C338 355.8475 338 356.5075 338 357.1875 C337.34 357.1875 336.68 357.1875 336 357.1875 C336 357.8475 336 358.5075 336 359.1875 C335.34 359.1875 334.68 359.1875 334 359.1875 C334 359.8475 334 360.5075 334 361.1875 C333.34 361.1875 332.68 361.1875 332 361.1875 C332 361.8475 332 362.5075 332 363.1875 C331.34 363.1875 330.68 363.1875 330 363.1875 C329.62846298 364.04701263 329.62846298 364.04701263 329.24942017 364.92388916 C327.80397834 367.54263814 326.13094551 369.29662164 324.00927734 371.40527344 C323.18857758 372.22582214 322.36787781 373.04637085 321.52230835 373.89178467 C320.63580597 374.76796448 319.74930359 375.64414429 318.8359375 376.546875 C317.47512558 377.90344208 317.47512558 377.90344208 316.08682251 379.28741455 C313.68115581 381.68546458 311.26954264 384.07744618 308.85662842 386.46820068 C306.39297656 388.91135171 303.93501423 391.36021206 301.4765625 393.80859375 C296.65626427 398.60683788 291.83030157 403.39932732 287 408.1875 C283.27731774 406.78510925 281.07321824 405.56688993 278.375 402.625 C273.60421316 397.67619873 268.37669229 393.45824911 263 389.1875 C261.96185443 388.34682957 260.92410339 387.50567173 259.88671875 386.6640625 C217.50749679 352.53897002 168.32483575 327.84832662 116 313.1875 C115.01644531 312.91067383 114.03289063 312.63384766 113.01953125 312.34863281 C79.91355194 303.1881332 45.30390395 298.96127227 11 298.1875 C10.15050781 298.16558594 9.30101562 298.14367187 8.42578125 298.12109375 C-36.73795661 297.09619803 -81.85829001 303.98314021 -125 317.1875 C-125.98774414 317.48881836 -126.97548828 317.79013672 -127.99316406 318.10058594 C-181.15388858 334.54473804 -230.48769292 362.24563405 -273.22949219 397.72558594 C-274.87412859 399.08356757 -276.53059597 400.42457071 -278.1953125 401.7578125 C-282.83285012 405.48553347 -287.22148751 409.25985943 -291.35546875 413.5390625 C-293.00264502 415.19015131 -294.71783942 416.68392127 -296.5 418.1875 C-306.01682405 426.40064952 -314.89853658 435.58513388 -323 445.1875 C-323.98124971 446.30758943 -324.96453822 447.4258942 -325.94921875 448.54296875 C-332.96794607 456.52332187 -339.67248683 464.64675504 -346 473.1875 C-346.48404297 473.83493164 -346.96808594 474.48236328 -347.46679688 475.14941406 C-400.69360788 546.53240713 -433.42991651 633.77985337 -433.93359375 806.9140625 C-429.77594846 834.19046867 -422.86033939 860.77700597 -415 887.1875 C-415.72372803 887.71134277 -416.44745605 888.23518555 -417.19311523 888.77490234 C-422.1928033 892.40095811 -427.17733122 896.03353681 -432.0625 899.8125 C-432.59012939 900.22016602 -433.11775879 900.62783203 -433.66137695 901.04785156 C-435.44263158 902.4255387 -437.22158774 903.80614588 -439 905.1875 C-440.01175293 905.97302246 -440.01175293 905.97302246 -441.04394531 906.77441406 C-445.58838772 910.30393788 -450.12941993 913.83782907 -454.66943359 917.37304688 C-458.44517266 920.31263338 -462.22265535 923.24997715 -466 926.1875 C-467.50000877 927.35415539 -469.00000876 928.52082207 -470.5 929.6875 C-509.5 960.02083333 -548.5 990.35416667 -587.5 1020.6875 C-588.24290283 1021.26532227 -588.98580566 1021.84314453 -589.7512207 1022.43847656 C-591.24711662 1023.60193312 -592.74304745 1024.76534478 -594.23901367 1025.92871094 C-598.05209776 1028.89411998 -601.86452064 1031.86037262 -605.67578125 1034.828125 C-613.29801637 1040.76221408 -620.9313945 1046.6802877 -628.59375 1052.5625 C-633.51530733 1056.34831333 -638.40911551 1060.1699316 -643.30810547 1063.98486328 C-649.85219061 1069.07844809 -656.41920108 1074.14144571 -663 1079.1875 C-667.0185117 1074.15674815 -669.53236376 1068.33297493 -672.3125 1062.5625 C-672.77011215 1061.61478226 -672.77011215 1061.61478226 -673.23696899 1060.6479187 C-708.9028609 986.48638891 -730.34802899 906.22014618 -744 732.1875 C-743.97808594 731.46230164 -743.95617188 730.73710327 -743.93359375 729.9899292 C-741.41386122 649.02072793 -727.20388641 570.53522625 -671 425.1875 C-670.68633484 424.53825562 -670.37266968 423.88901123 -670.04949951 423.22009277 C-661.20576303 404.94487408 -651.99524625 387.05317605 -641.48583984 369.66845703 C-640.16339877 367.46033246 -638.87796977 365.2376227 -637.61328125 362.99609375 C-632.16649561 353.383282 -626.12406167 344.18990224 -620 335 C-619.58079285 334.37019226 -619.16158569 333.74038452 -618.72967529 333.0914917 C-610.82241275 321.23272526 -602.64450817 309.56970813 -594.0625 298.1875 C-593.56435791 297.52580811 -593.06621582 296.86411621 -592.55297852 296.18237305 C-584.46995244 285.4812077 -576.15186518 275.02106348 -567.41796875 264.84375 C-565.95988526 263.14064422 -564.51053148 261.43040726 -563.0625 259.71875 C-557.52083317 253.18611126 -551.87456489 246.7808943 -546.00805664 240.53710938 C-543.81578027 238.19686476 -541.74349199 235.85557503 -539.78125 233.31640625 C-539.1934375 232.61386719 -538.605625 231.91132813 -538 231.1875 C-537.34 231.1875 -536.68 231.1875 -536 231.1875 C-535.76748535 230.62973877 -535.5349707 230.07197754 -535.29541016 229.49731445 C-533.66376361 226.58796504 -531.63827874 224.58401509 -529.2734375 222.23046875 C-528.8069278 221.76441727 -528.34041809 221.29836578 -527.85977173 220.81819153 C-526.8719326 219.83336655 -525.88167105 218.85096619 -524.88916016 217.87084961 C-523.39566953 216.39541957 -521.9101425 214.9123426 -520.42578125 213.42773438 C-515.65368553 208.67392293 -510.8312521 204.02511858 -505.69189453 199.66723633 C-503.87770448 198.08053995 -502.18736729 196.4077756 -500.5 194.6875 C-496.83703374 190.97536641 -492.95765399 187.58069118 -489 184.1875 C-487.9566862 183.28034461 -486.91374621 182.37275919 -485.87109375 181.46484375 C-478.91335692 175.427605 -471.8276025 169.60858957 -464.55078125 163.9609375 C-461.53436088 161.61732774 -458.56439913 159.22111471 -455.60058594 156.81152344 C-429.60906409 135.75770495 -401.08568213 116.68945085 -372 100.1875 C-371.00967773 99.62385742 -370.01935547 99.06021484 -368.99902344 98.47949219 C-362.59387489 94.84350868 -356.16671579 91.24940964 -349.71875 87.68994141 C-347.49543962 86.46129089 -345.27798969 85.223116 -343.0625 83.98046875 C-331.52743213 77.63885158 -319.51107454 72.24810211 -307.53662109 66.79833984 C-305.30576574 65.78224267 -303.07667129 64.76226211 -300.85009766 63.73681641 C-282.2778867 55.19608902 -263.24429725 48.04311789 -244 41.1875 C-242.80616699 40.76194824 -241.61233398 40.33639648 -240.38232422 39.89794922 C-177.79472142 17.82696078 -111.23348488 4.9235248 -45 1.1875 C-43.98329224 1.12554947 -43.98329224 1.12554947 -42.94604492 1.06234741 C-28.62870662 0.19602777 -14.34149635 -0.01420536 0 0 Z " fill="#E94334" transform="translate(1934,48.8125)"/>
<path d="M0 0 C231.33 0 462.66 0 701 0 C703.49317384 13.08916268 705.87542231 26.00070002 707.5625 39.1875 C707.66639038 39.9852887 707.77028076 40.78307739 707.87731934 41.6050415 C711.40311704 68.78077443 713.73128855 96.12919843 714.50268555 123.52490234 C714.5619018 125.60399703 714.62736678 127.68282945 714.69335938 129.76171875 C715.2875723 149.41875801 715.03797796 169.03955788 714.25 188.6875 C714.18564758 190.29782104 714.18564758 190.29782104 714.11999512 191.94067383 C710.67356664 275.68364993 695.15538551 358.03684732 587 592 C586.09755893 593.28248361 585.19521169 594.56503325 584.29296875 595.84765625 C568.61893849 618.03275699 551.67769189 639.28538061 533.38989258 659.37426758 C531.80271913 661.11806679 530.21991131 662.86584999 528.64160156 664.61767578 C521.4317228 672.57051539 513.92997088 680.18887608 506.3125 687.75 C505.10978835 688.94767802 503.90731321 690.1455936 502.70507812 691.34375 C499.806091 694.23189879 496.90397007 697.11686185 494 700 C490.84564346 698.83659593 488.28175032 697.67166745 485.6875 695.53125 C485.09412842 695.0480127 484.50075684 694.56477539 483.8894043 694.06689453 C483.26590088 693.54981934 482.64239746 693.03274414 482 692.5 C480.65315781 691.40264593 479.30548834 690.30630653 477.95703125 689.2109375 C477.28752441 688.6653418 476.61801758 688.11974609 475.92822266 687.55761719 C473.21562403 685.36638153 470.45727365 683.24368327 467.6875 681.125 C462.43813713 677.10888228 457.21406065 673.06184514 452 669 C446.84451434 664.98523191 441.68315684 660.97898909 436.5 657 C429.08386871 651.30530446 421.70801416 645.55912408 414.33056641 639.81445312 C410.55482736 636.87486664 406.77736693 633.93749416 403 631 C398.44050616 627.45427972 393.8814516 623.90800104 389.32421875 620.359375 C382.72798614 615.22405297 376.13031163 610.0912807 369.5 605 C362.08386871 599.30530446 354.70801416 593.55912408 347.33056641 587.81445312 C343.55482736 584.87486664 339.77736693 581.93749416 336 579 C331.44050616 575.45427972 326.8814516 571.90800104 322.32421875 568.359375 C315.72798614 563.22405297 309.13031163 558.0912807 302.5 553 C295.09711533 547.31547626 287.73438129 541.57963243 280.37011719 535.84521484 C276.39374458 532.74947688 272.41553085 529.65610662 268.4375 526.5625 C267.01952262 525.45964651 265.60155359 524.35678228 264.18359375 523.25390625 C263.50925293 522.72941895 262.83491211 522.20493164 262.14013672 521.66455078 C256.57006836 517.33227539 256.57006836 517.33227539 251 513 C254.4873784 509.32498899 258.12511718 506.35840636 262.3125 503.5 C273.98749125 495.33000411 284.89012681 486.23996348 295.296875 476.515625 C298.58577903 473.45485304 301.96058024 470.50083046 305.35546875 467.55859375 C307.10161568 466.08139976 307.10161568 466.08139976 308 464 C308.66 464 309.32 464 310 464 C310.25652344 463.41347656 310.51304687 462.82695313 310.77734375 462.22265625 C312.11173896 459.79687071 313.54485328 458.32471299 315.5625 456.4375 C319.95573328 452.13857584 323.82029494 447.54722939 327.63085938 442.72851562 C328.61229673 441.48946846 329.5985378 440.25422042 330.58789062 439.02148438 C339.09024322 428.42026531 346.96210462 417.62946349 354 406 C354.47646973 405.21318848 354.95293945 404.42637695 355.44384766 403.61572266 C377.06847424 367.55567812 389.8401665 329.63933401 400 289 C267.67 289 135.34 289 -1 289 C-1.020625 241.68625 -1.04125 194.3725 -1.0625 145.625 C-1.071604 130.65979004 -1.08070801 115.69458008 -1.09008789 100.27587891 C-1.09460449 82.06713867 -1.09460449 82.06713867 -1.09544373 73.55551147 C-1.09637917 67.5830954 -1.10005958 61.61068859 -1.10557556 55.63827515 C-1.11192084 48.75782338 -1.11484066 41.87738057 -1.11344495 34.99692585 C-1.11284001 31.47391939 -1.11382888 27.95093295 -1.11921513 24.42793012 C-1.12414448 20.66398305 -1.12300638 16.900087 -1.12025452 13.13613892 C-1.12316718 12.02557821 -1.12607985 10.91501751 -1.12908077 9.77080345 C-1.1270899 8.76677105 -1.12509903 7.76273865 -1.12304783 6.72828102 C-1.12342755 5.85720258 -1.12380727 4.98612415 -1.1241985 4.08864939 C-1 2 -1 2 0 0 Z " fill="#4285F3" transform="translate(1935,658)"/>
<path d="M0 0 C1.33855056 0.78281305 2.67073644 1.57651877 4 2.375 C4.7425 2.81585938 5.485 3.25671875 6.25 3.7109375 C7.11625 4.34902344 7.11625 4.34902344 8 5 C8 5.66 8 6.32 8 7 C9.65 7.66 11.3 8.32 13 9 C13 9.66 13 10.32 13 11 C13.66 11.20625 14.32 11.4125 15 11.625 C19.07180186 13.49124252 22.68796998 15.97561527 26 19 C26 19.66 26 20.32 26 21 C27.02673828 21.3403125 27.02673828 21.3403125 28.07421875 21.6875 C31.74518186 23.33428719 34.65392227 25.53511214 37.8125 28 C38.40998047 28.45117188 39.00746094 28.90234375 39.62304688 29.3671875 C41.12347581 30.52637603 42.56724504 31.75813919 44 33 C44 33.66 44 34.32 44 35 C45.02673828 35.3403125 45.02673828 35.3403125 46.07421875 35.6875 C49.74518186 37.33428719 52.65392227 39.53511214 55.8125 42 C56.40998047 42.45117188 57.00746094 42.90234375 57.62304688 43.3671875 C59.12347581 44.52637603 60.56724504 45.75813919 62 47 C62 47.66 62 48.32 62 49 C62.66 49.20625 63.32 49.4125 64 49.625 C68.07180186 51.49124252 71.68796998 53.97561527 75 57 C75 57.66 75 58.32 75 59 C76.65 59.66 78.3 60.32 80 61 C80 61.66 80 62.32 80 63 C80.66 63.20625 81.32 63.4125 82 63.625 C86.07180186 65.49124252 89.68796998 67.97561527 93 71 C93 71.66 93 72.32 93 73 C94.65 73.66 96.3 74.32 98 75 C98 75.66 98 76.32 98 77 C98.66 77.20625 99.32 77.4125 100 77.625 C104.07180186 79.49124252 107.68796998 81.97561527 111 85 C111 85.66 111 86.32 111 87 C111.68449219 87.226875 112.36898438 87.45375 113.07421875 87.6875 C116.74518186 89.33428719 119.65392227 91.53511214 122.8125 94 C123.40998047 94.45117188 124.00746094 94.90234375 124.62304688 95.3671875 C126.12347581 96.52637603 127.56724504 97.75813919 129 99 C129 99.66 129 100.32 129 101 C129.68449219 101.226875 130.36898438 101.45375 131.07421875 101.6875 C134.74518186 103.33428719 137.65392227 105.53511214 140.8125 108 C141.40998047 108.45117188 142.00746094 108.90234375 142.62304688 109.3671875 C144.12347581 110.52637603 145.56724504 111.75813919 147 113 C147 113.66 147 114.32 147 115 C147.66 115.20625 148.32 115.4125 149 115.625 C153.07180186 117.49124252 156.68796998 119.97561527 160 123 C160 123.66 160 124.32 160 125 C161.65 125.66 163.3 126.32 165 127 C165 127.66 165 128.32 165 129 C165.66 129.20625 166.32 129.4125 167 129.625 C171.07180186 131.49124252 174.68796998 133.97561527 178 137 C178 137.66 178 138.32 178 139 C178.68449219 139.226875 179.36898438 139.45375 180.07421875 139.6875 C183.74518186 141.33428719 186.65392227 143.53511214 189.8125 146 C190.40998047 146.45117188 191.00746094 146.90234375 191.62304688 147.3671875 C193.12347581 148.52637603 194.56724504 149.75813919 196 151 C196 151.66 196 152.32 196 153 C196.68449219 153.226875 197.36898438 153.45375 198.07421875 153.6875 C201.74518186 155.33428719 204.65392227 157.53511214 207.8125 160 C208.40998047 160.45117188 209.00746094 160.90234375 209.62304688 161.3671875 C211.12347581 162.52637603 212.56724504 163.75813919 214 165 C214 165.66 214 166.32 214 167 C214.66 167.20625 215.32 167.4125 216 167.625 C220.07180186 169.49124252 223.68796998 171.97561527 227 175 C227 175.66 227 176.32 227 177 C228.65 177.66 230.3 178.32 232 179 C232 179.66 232 180.32 232 181 C232.66 181.20625 233.32 181.4125 234 181.625 C238.07180186 183.49124252 241.68796998 185.97561527 245 189 C245 189.66 245 190.32 245 191 C246.32 191 247.64 191 249 191 C247.35927137 197.08030058 245.67735564 203.14705583 243.94921875 209.203125 C232.48384879 249.63362334 225.77995162 290.71474179 225.75 332.8125 C225.74932526 333.67727966 225.74865051 334.54205933 225.74795532 335.43304443 C225.80689205 383.58820412 235.29806798 429.96193778 249 476 C248.27627197 476.52384277 247.55254395 477.04768555 246.80688477 477.58740234 C241.8071967 481.21345811 236.82266878 484.84603681 231.9375 488.625 C231.40987061 489.03266602 230.88224121 489.44033203 230.33862305 489.86035156 C228.55736842 491.2380387 226.77841226 492.61864588 225 494 C223.98824707 494.78552246 223.98824707 494.78552246 222.95605469 495.58691406 C218.41161228 499.11643788 213.87058007 502.65032907 209.33056641 506.18554688 C205.55482734 509.12513338 201.77734465 512.06247715 198 515 C196.49999123 516.16665539 194.99999124 517.33332207 193.5 518.5 C154.5 548.83333333 115.5 579.16666667 76.5 609.5 C75.75709717 610.07782227 75.01419434 610.65564453 74.2487793 611.25097656 C72.75288338 612.41443312 71.25695255 613.57784478 69.76098633 614.74121094 C65.94790224 617.70661998 62.13547936 620.67287262 58.32421875 623.640625 C50.70198363 629.57471408 43.0686055 635.4927877 35.40625 641.375 C30.48469267 645.16081333 25.59088449 648.9824316 20.69189453 652.79736328 C14.14780939 657.89094809 7.58079892 662.95394571 1 668 C-3.0185117 662.96924815 -5.53236376 657.14547493 -8.3125 651.375 C-8.77011215 650.42728226 -8.77011215 650.42728226 -9.23696899 649.4604187 C-44.9028609 575.29888891 -66.34802899 495.03264618 -80 321 C-79.97808594 320.27480164 -79.95617188 319.54960327 -79.93359375 318.8024292 C-77.41386122 237.83322793 -63.20388641 159.34772625 0 0 Z " fill="#FABB04" transform="translate(1270,460)"/>
<path d="M0 0 C2 1 2 1 2.89212036 3.09959412 C3.34601639 4.49553551 3.34601639 4.49553551 3.80908203 5.91967773 C4.15829712 6.98134659 4.50751221 8.04301544 4.86730957 9.13685608 C5.43185852 10.89249123 5.43185852 10.89249123 6.0078125 12.68359375 C6.40560913 13.90078598 6.80340576 15.11797821 7.21325684 16.37205505 C8.29986738 19.69802866 9.37690115 23.02703329 10.45209503 26.35671234 C11.35019409 29.1338555 12.25386248 31.90917161 13.15767479 34.68445969 C20.65382733 57.70286674 28.04234637 80.75612003 35.38796997 103.82295227 C37.31192876 109.85890723 39.25362022 115.88884603 41.2109375 121.9140625 C41.45413727 122.66348114 41.69733704 123.41289978 41.94790649 124.18502808 C43.04834884 127.57492419 44.15167899 130.96382912 45.26025391 134.35107422 C45.62812012 135.48303223 45.99598633 136.61499023 46.375 137.78125 C46.69210938 138.75126953 47.00921875 139.72128906 47.3359375 140.72070312 C48 143 48 143 48 145 C98.49 145 148.98 145 201 145 C195.37414966 150.62585034 195.37414966 150.62585034 191.98828125 153.09375 C191.2398999 153.64232666 190.49151855 154.19090332 189.72045898 154.75610352 C188.92583252 155.33158936 188.13120605 155.9070752 187.3125 156.5 C186.475979 157.11093506 185.63945801 157.72187012 184.77758789 158.35131836 C182.18881152 160.23943916 179.59520648 162.12072963 177 164 C176.22301758 164.56348145 175.44603516 165.12696289 174.64550781 165.70751953 C168.69661444 170.01963279 162.73407481 174.31270919 156.77050781 178.60449219 C148.31406964 184.6923875 139.88111091 190.80868741 131.5 197 C123.13653839 203.17827466 114.72116925 209.2813254 106.28222656 215.35595703 C101.55033105 218.76466311 96.82559969 222.18330477 92.09936523 225.59985352 C87.74279829 228.74724263 83.37616082 231.87990631 79 235 C80.37206446 241.67175877 82.19886929 248.03773504 84.3515625 254.49609375 C84.68263504 255.50183945 85.01370758 256.50758514 85.35481262 257.54380798 C86.06871541 259.71158215 86.78447779 261.87874464 87.50192261 264.04534912 C89.43109793 269.87224387 91.34614292 275.70377927 93.26171875 281.53515625 C93.65571365 282.73366211 94.04970856 283.93216797 94.4556427 285.16699219 C98.86372565 298.59574292 103.15486638 312.06141579 107.44146729 325.52932739 C110.64517293 335.59087002 113.85275769 345.64890869 117.22265625 355.65625 C117.46511581 356.37680573 117.70757538 357.09736145 117.9573822 357.8397522 C119.04777071 361.0731428 120.14746067 364.30277599 121.25952148 367.52880859 C121.62762939 368.60984863 121.9957373 369.69088867 122.375 370.8046875 C122.69210937 371.72233887 123.00921875 372.63999023 123.3359375 373.58544922 C124 376 124 376 124 380 C119.67373449 378.53938926 116.62121981 376.33620545 113.0625 373.5 C108.55160083 369.95264381 103.99619728 366.50365497 99.3125 363.1875 C98.73854492 362.78047852 98.16458984 362.37345703 97.57324219 361.95410156 C96.36016618 361.09404059 95.14694581 360.2341832 93.93359375 359.37451172 C83.96555363 352.28864481 74.08592297 345.08025301 64.25 337.8125 C57.73130497 332.99607657 51.1755176 328.23977094 44.5703125 323.54296875 C40.47255049 320.62836338 36.39111217 317.69132374 32.3125 314.75 C31.56645508 314.21334717 30.82041016 313.67669434 30.05175781 313.1237793 C25.93711841 310.15516068 21.85520901 307.14938009 17.8046875 304.09375 C16.94963623 303.45211914 16.09458496 302.81048828 15.21362305 302.14941406 C13.56365061 300.90878532 11.91901016 299.66102452 10.28051758 298.40527344 C9.53181396 297.84356445 8.78311035 297.28185547 8.01171875 296.703125 C7.02884888 295.95530762 7.02884888 295.95530762 6.02612305 295.19238281 C3.6224295 293.77779801 1.77971157 293.22796284 -1 293 C-3.61074665 294.61082156 -5.82564635 296.20252704 -8.1875 298.125 C-9.61974477 299.24521646 -11.05339035 300.36364374 -12.48828125 301.48046875 C-13.60130615 302.35517822 -13.60130615 302.35517822 -14.73681641 303.24755859 C-18.38269419 306.07065576 -22.12655283 308.75296718 -25.875 311.4375 C-27.39459671 312.53115905 -28.91412757 313.6249096 -30.43359375 314.71875 C-31.95571442 315.81252052 -33.47784977 316.90627062 -35 318 C-44.20193522 324.61946309 -53.38242958 331.26464843 -62.5 338 C-70.87360152 344.18576524 -79.29932732 350.29598074 -87.74853516 356.37792969 C-90.04634996 358.03339288 -92.34188876 359.69196457 -94.63671875 361.3515625 C-103.73595847 367.93191192 -112.85340437 374.48562401 -122 381 C-123.28993182 378.42013636 -122.79471177 377.75881746 -121.89868164 375.06835938 C-121.49458321 373.83616165 -121.49458321 373.83616165 -121.08232117 372.57907104 C-120.77800674 371.6764151 -120.47369232 370.77375916 -120.16015625 369.84375 C-119.84726151 368.8954129 -119.53436676 367.94707581 -119.21199036 366.97000122 C-118.52886127 364.90189567 -117.84238181 362.83489459 -117.15301514 360.76885986 C-115.28904001 355.18152478 -113.44931901 349.58618889 -111.60546875 343.9921875 C-111.22267761 342.83326996 -110.83988647 341.67435242 -110.44549561 340.48031616 C-106.85084033 329.58530869 -103.34699857 318.66224589 -99.86450195 307.73095703 C-94.31280459 290.30468171 -88.71786475 272.89291422 -83.0625 255.5 C-82.75882507 254.56424133 -82.45515015 253.62848267 -82.14227295 252.66436768 C-81.2957858 250.05693206 -80.44712802 247.45021456 -79.59765625 244.84375 C-79.3474321 244.07239716 -79.09720795 243.30104431 -78.83940125 242.50631714 C-77.11510284 237.23020568 -77.11510284 237.23020568 -76 235 C-76.556875 234.731875 -77.11375 234.46375 -77.6875 234.1875 C-80.21225334 232.89100504 -82.63714484 231.57523677 -85 230 C-85 229.34 -85 228.68 -85 228 C-85.70898438 227.75507812 -86.41796875 227.51015625 -87.1484375 227.2578125 C-90.38472906 225.83029759 -92.82810061 224.03863915 -95.625 221.875 C-96.68825845 221.06048777 -97.75207246 220.24670032 -98.81640625 219.43359375 C-99.3489502 219.0247998 -99.88149414 218.61600586 -100.43017578 218.19482422 C-102.78105343 216.40552481 -105.17016909 214.67082441 -107.5625 212.9375 C-108.46097656 212.28652344 -109.35945313 211.63554688 -110.28515625 210.96484375 C-111.18105469 210.31644531 -112.07695312 209.66804688 -113 209 C-114.83367166 207.66713198 -116.66700402 206.33379707 -118.5 205 C-119.41652344 204.33355469 -120.33304688 203.66710938 -121.27734375 202.98046875 C-123.01998636 201.71286501 -124.76221361 200.44468993 -126.50390625 199.17578125 C-132.18073065 195.04166638 -137.86912568 190.92377436 -143.5625 186.8125 C-144.33223145 186.2565918 -145.10196289 185.70068359 -145.89501953 185.12792969 C-149.7589405 182.33798551 -153.62424957 179.54999768 -157.4921875 176.765625 C-166.16343506 170.51912928 -174.79913448 164.22936037 -183.36889648 157.84399414 C-187.92212443 154.46785218 -192.54561245 151.29474626 -197.34545898 148.27709961 C-197.89145752 147.85565674 -198.43745605 147.43421387 -199 147 C-199 146.34 -199 145.68 -199 145 C-148.51 145 -98.02 145 -46 145 C-45.34 142.03 -44.68 139.06 -44 136 C-43.44454548 134.05973416 -42.86028823 132.12732024 -42.23852539 130.20727539 C-41.89889771 129.15176987 -41.55927002 128.09626434 -41.20935059 127.0087738 C-40.65906189 125.32027061 -40.65906189 125.32027061 -40.09765625 123.59765625 C-39.70783569 122.39073624 -39.31801514 121.18381622 -38.91638184 119.94032288 C-37.85697506 116.6610996 -36.79233924 113.3835962 -35.72661209 110.10642242 C-34.83490798 107.36204531 -33.94638413 104.61664302 -33.05786037 101.87123489 C-25.82482838 79.5239555 -18.52232027 57.19917981 -11.18188477 34.88696289 C-7.36697766 23.28410648 -3.58543458 11.67612729 0 0 Z " fill="#FDD700" transform="translate(2467,1730)"/>
<path d="M0 0 C2 1 2 1 2.89212036 3.09959412 C3.34601639 4.49553551 3.34601639 4.49553551 3.80908203 5.91967773 C4.15829712 6.98134659 4.50751221 8.04301544 4.86730957 9.13685608 C5.43185852 10.89249123 5.43185852 10.89249123 6.0078125 12.68359375 C6.40560913 13.90078598 6.80340576 15.11797821 7.21325684 16.37205505 C8.29986738 19.69802866 9.37690115 23.02703329 10.45209503 26.35671234 C11.35019409 29.1338555 12.25386248 31.90917161 13.15767479 34.68445969 C20.65382733 57.70286674 28.04234637 80.75612003 35.38796997 103.82295227 C37.31192876 109.85890723 39.25362022 115.88884603 41.2109375 121.9140625 C41.45413727 122.66348114 41.69733704 123.41289978 41.94790649 124.18502808 C43.04834884 127.57492419 44.15167899 130.96382912 45.26025391 134.35107422 C45.62812012 135.48303223 45.99598633 136.61499023 46.375 137.78125 C46.69210937 138.75126953 47.00921875 139.72128906 47.3359375 140.72070312 C48 143 48 143 48 145 C98.49 145 148.98 145 201 145 C195.37414966 150.62585034 195.37414966 150.62585034 191.98828125 153.09375 C191.2398999 153.64232666 190.49151855 154.19090332 189.72045898 154.75610352 C188.92583252 155.33158936 188.13120605 155.9070752 187.3125 156.5 C186.475979 157.11093506 185.63945801 157.72187012 184.77758789 158.35131836 C182.18881152 160.23943916 179.59520648 162.12072963 177 164 C176.22301758 164.56348145 175.44603516 165.12696289 174.64550781 165.70751953 C168.69661444 170.01963279 162.73407481 174.31270919 156.77050781 178.60449219 C148.31406964 184.6923875 139.88111091 190.80868741 131.5 197 C123.13653839 203.17827466 114.72116925 209.2813254 106.28222656 215.35595703 C101.55033105 218.76466311 96.82559969 222.18330477 92.09936523 225.59985352 C87.74279829 228.74724263 83.37616082 231.87990631 79 235 C80.37206446 241.67175877 82.19886929 248.03773504 84.3515625 254.49609375 C84.68263504 255.50183945 85.01370758 256.50758514 85.35481262 257.54380798 C86.06871541 259.71158215 86.78447779 261.87874464 87.50192261 264.04534912 C89.43109793 269.87224387 91.34614292 275.70377927 93.26171875 281.53515625 C93.65571365 282.73366211 94.04970856 283.93216797 94.4556427 285.16699219 C98.86372565 298.59574292 103.15486638 312.06141579 107.44146729 325.52932739 C110.64517293 335.59087002 113.85275769 345.64890869 117.22265625 355.65625 C117.46511581 356.37680573 117.70757538 357.09736145 117.9573822 357.8397522 C119.04777071 361.0731428 120.14746067 364.30277599 121.25952148 367.52880859 C121.62762939 368.60984863 121.9957373 369.69088867 122.375 370.8046875 C122.69210937 371.72233887 123.00921875 372.63999023 123.3359375 373.58544922 C124 376 124 376 124 380 C119.67373449 378.53938926 116.62121981 376.33620545 113.0625 373.5 C108.55160083 369.95264381 103.99619728 366.50365497 99.3125 363.1875 C98.73854492 362.78047852 98.16458984 362.37345703 97.57324219 361.95410156 C96.36016618 361.09404059 95.14694581 360.2341832 93.93359375 359.37451172 C83.96555363 352.28864481 74.08592297 345.08025301 64.25 337.8125 C57.73130497 332.99607657 51.1755176 328.23977094 44.5703125 323.54296875 C40.47255049 320.62836338 36.39111217 317.69132374 32.3125 314.75 C31.56645508 314.21334717 30.82041016 313.67669434 30.05175781 313.1237793 C25.93711841 310.15516068 21.85520901 307.14938009 17.8046875 304.09375 C16.94963623 303.45211914 16.09458496 302.81048828 15.21362305 302.14941406 C13.56365061 300.90878532 11.91901016 299.66102452 10.28051758 298.40527344 C9.53181396 297.84356445 8.78311035 297.28185547 8.01171875 296.703125 C7.02884888 295.95530762 7.02884888 295.95530762 6.02612305 295.19238281 C3.6224295 293.77779801 1.77971157 293.22796284 -1 293 C-3.61074665 294.61082156 -5.82564635 296.20252704 -8.1875 298.125 C-9.61974477 299.24521646 -11.05339035 300.36364374 -12.48828125 301.48046875 C-13.60130615 302.35517822 -13.60130615 302.35517822 -14.73681641 303.24755859 C-18.38269419 306.07065576 -22.12655283 308.75296718 -25.875 311.4375 C-27.39459671 312.53115905 -28.91412757 313.6249096 -30.43359375 314.71875 C-31.95571442 315.81252052 -33.47784977 316.90627062 -35 318 C-44.20193522 324.61946309 -53.38242958 331.26464843 -62.5 338 C-70.87360152 344.18576524 -79.29932732 350.29598074 -87.74853516 356.37792969 C-90.04634996 358.03339288 -92.34188876 359.69196457 -94.63671875 361.3515625 C-103.73595847 367.93191192 -112.85340437 374.48562401 -122 381 C-123.28993182 378.42013636 -122.79471177 377.75881746 -121.89868164 375.06835938 C-121.49458321 373.83616165 -121.49458321 373.83616165 -121.08232117 372.57907104 C-120.77800674 371.6764151 -120.47369232 370.77375916 -120.16015625 369.84375 C-119.84726151 368.8954129 -119.53436676 367.94707581 -119.21199036 366.97000122 C-118.52886127 364.90189567 -117.84238181 362.83489459 -117.15301514 360.76885986 C-115.28904001 355.18152478 -113.44931901 349.58618889 -111.60546875 343.9921875 C-111.22267761 342.83326996 -110.83988647 341.67435242 -110.44549561 340.48031616 C-106.85084033 329.58530869 -103.34699857 318.66224589 -99.86450195 307.73095703 C-94.31280459 290.30468171 -88.71786475 272.89291422 -83.0625 255.5 C-82.75882507 254.56424133 -82.45515015 253.62848267 -82.14227295 252.66436768 C-81.2957858 250.05693206 -80.44712802 247.45021456 -79.59765625 244.84375 C-79.3474321 244.07239716 -79.09720795 243.30104431 -78.83940125 242.50631714 C-77.11510284 237.23020568 -77.11510284 237.23020568 -76 235 C-76.55558594 234.74476563 -77.11117188 234.48953125 -77.68359375 234.2265625 C-80.34056103 232.8196692 -82.64471107 231.16252583 -85.0625 229.375 C-86.03316406 228.66085937 -87.00382812 227.94671875 -88.00390625 227.2109375 C-88.99261719 226.48132812 -89.98132812 225.75171875 -91 225 C-92.83221833 223.66513489 -94.66552919 222.3317679 -96.5 221 C-100.16666667 218.33333333 -103.83333333 215.66666667 -107.5 213 C-108.41652344 212.33355469 -109.33304688 211.66710938 -110.27734375 210.98046875 C-112.01998636 209.71286501 -113.76221361 208.44468993 -115.50390625 207.17578125 C-119.67179608 204.14053935 -123.84352274 201.11090481 -128.02734375 198.09765625 C-135.96667509 192.37816019 -143.8809762 186.62845927 -151.75 180.8125 C-157.70097876 176.41541125 -163.67339549 172.05459873 -169.70605469 167.77026367 C-175.42691063 163.70671932 -181.10837145 159.58910274 -186.78540039 155.46459961 C-187.50590576 154.94260986 -188.22641113 154.42062012 -188.96875 153.8828125 C-189.65324219 153.3868457 -190.33773438 152.89087891 -191.04296875 152.37988281 C-192.842333 151.1111694 -194.67230146 149.92090019 -196.53125 148.7421875 C-197.75328125 147.87980469 -197.75328125 147.87980469 -199 147 C-199 146.34 -199 145.68 -199 145 C-148.51 145 -98.02 145 -46 145 C-45.34 142.03 -44.68 139.06 -44 136 C-43.44454548 134.05973416 -42.86028823 132.12732024 -42.23852539 130.20727539 C-41.89889771 129.15176987 -41.55927002 128.09626434 -41.20935059 127.0087738 C-40.65906189 125.32027061 -40.65906189 125.32027061 -40.09765625 123.59765625 C-39.70783569 122.39073624 -39.31801514 121.18381622 -38.91638184 119.94032288 C-37.85697506 116.6610996 -36.79233924 113.3835962 -35.72661209 110.10642242 C-34.83490798 107.36204531 -33.94638413 104.61664302 -33.05786037 101.87123489 C-25.82482838 79.5239555 -18.52232027 57.19917981 -11.18188477 34.88696289 C-7.36697766 23.28410648 -3.58543458 11.67612729 0 0 Z " fill="#FDD700" transform="translate(1374,1730)"/>
<path d="M0 0 C1.78543926 2.67815889 2.64563568 4.58890196 3.62548828 7.59594727 C3.93467697 8.53738586 4.24386566 9.47882446 4.56242371 10.4487915 C4.89502701 11.47760437 5.22763031 12.50641724 5.5703125 13.56640625 C5.92358109 14.64718445 6.27684967 15.72796265 6.64082336 16.8414917 C7.80688853 20.41365692 8.96607667 23.98801195 10.125 27.5625 C10.936029 30.05306004 11.74731128 32.54353761 12.55883789 35.03393555 C18.57156945 53.50776124 24.51558831 72.00369852 30.41455078 90.51416016 C33.39781202 99.87474532 36.39055406 109.2315034 39.44140625 118.5703125 C39.70602158 119.38161118 39.9706369 120.19290985 40.24327087 121.02879333 C41.45811488 124.75253407 42.67705604 128.47482612 43.90405273 132.19458008 C44.32163173 133.47210918 44.73904238 134.74969332 45.15625 136.02734375 C45.51525391 137.11781006 45.87425781 138.20827637 46.24414062 139.33178711 C47 142 47 142 47 145 C97.49 145 147.98 145 200 145 C200 145.66 200 146.32 200 147 C197.57719928 148.855436 195.14370618 150.59522521 192.625 152.3125 C191.05144273 153.404025 189.47854666 154.49650368 187.90625 155.58984375 C187.0915625 156.15429199 186.276875 156.71874023 185.4375 157.30029297 C181.63675796 159.95061008 177.87857437 162.65845541 174.125 165.375 C173.38266113 165.91165283 172.64032227 166.44830566 171.87548828 167.0012207 C165.59230643 171.55271608 159.34861502 176.15704533 153.1081543 180.7668457 C144.04853864 187.45284391 134.90939973 194.0275323 125.77050781 200.60449219 C123.53389858 202.21465507 121.29795728 203.82573823 119.0625 205.4375 C118.32612305 205.96835205 117.58974609 206.4992041 116.83105469 207.04614258 C111.25394658 211.07493 105.71735591 215.15669249 100.1875 219.25 C92.88997976 224.65013518 85.51200695 229.90208505 78 235 C80.25934626 243.69811025 82.94330439 252.23486311 85.7265625 260.77734375 C86.19211196 262.21247754 86.65744871 263.64768035 87.12258911 265.08294678 C88.10926843 268.12574014 89.09760676 271.16798756 90.08728027 274.20980835 C91.37722914 278.17456004 92.66448204 282.14018028 93.95079041 286.10611439 C99.00512434 301.68905314 104.07901935 317.26541494 109.1953125 332.828125 C109.58897003 334.02679703 109.98262756 335.22546906 110.38821411 336.46046448 C112.20580228 341.99432889 114.02746479 347.52677128 115.85791016 353.05639648 C118.9063857 362.30165256 121.92353216 371.4778035 124 381 C119.37807828 378.46428235 115.26268476 375.79258734 111.125 372.5 C106.14578899 368.59204278 101.06358213 364.87486697 95.875 361.25 C89.70795635 356.93635165 83.61158448 352.54012074 77.5625 348.0625 C71.37873757 343.48610108 65.17767611 338.9367377 58.9375 334.4375 C58.19822266 333.90447266 57.45894531 333.37144531 56.69726562 332.82226562 C54.46536063 331.21412447 52.23281209 329.60688142 50 328 C40.65398263 321.27397874 31.32970947 314.52184952 22.0625 307.6875 C21.26448975 307.10162109 20.46647949 306.51574219 19.64428711 305.91210938 C16.24430819 303.41303425 12.85760204 300.90623454 9.53515625 298.3046875 C8.57480469 297.56476563 7.61445313 296.82484375 6.625 296.0625 C5.83351563 295.43472656 5.04203125 294.80695313 4.2265625 294.16015625 C1.31347955 292.64228671 0.11805343 293.11474916 -3 294 C-5.07267118 295.16603423 -5.07267118 295.16603423 -7.01171875 296.703125 C-7.76001953 297.26451172 -8.50832031 297.82589844 -9.27929688 298.40429688 C-10.07400391 299.01337891 -10.86871094 299.62246094 -11.6875 300.25 C-13.39909312 301.53731831 -15.11134819 302.8237569 -16.82421875 304.109375 C-17.68966309 304.76228516 -18.55510742 305.41519531 -19.44677734 306.08789062 C-23.26062669 308.94408379 -27.128121 311.72327161 -31 314.5 C-37.19738741 318.95902126 -43.35977677 323.46260857 -49.5 328 C-59.3539512 335.27959514 -69.28574596 342.44830513 -79.22949219 349.60449219 C-93.58349959 359.93812115 -107.86587968 370.36701406 -122 381 C-122.66 380.67 -123.32 380.34 -124 380 C-120.5222368 369.24954555 -117.04286191 358.49961338 -113.5625 347.75 C-113.30299183 346.94842972 -113.04348366 346.14685944 -112.7761116 345.32099915 C-105.02739299 321.38762029 -97.25178382 297.46345331 -89.40649414 273.56152344 C-87.88484646 268.92474479 -86.37267711 264.28495486 -84.86444092 259.64379883 C-83.97721336 256.93030953 -83.07520063 254.22200273 -82.17236328 251.51367188 C-81.60536642 249.78529655 -81.03877821 248.05678709 -80.47265625 246.328125 C-80.20658066 245.5425824 -79.94050507 244.75703979 -79.66636658 243.94769287 C-78.02559905 238.96593314 -78.02559905 238.96593314 -79 234 C-81.09637467 232.26384746 -83.12375223 230.75553849 -85.375 229.25 C-86.66048442 228.36245428 -87.94563712 227.47442795 -89.23046875 226.5859375 C-89.87032715 226.14862305 -90.51018555 225.71130859 -91.16943359 225.26074219 C-93.70942022 223.51141024 -96.19931078 221.69703147 -98.6875 219.875 C-99.56664063 219.23433594 -100.44578125 218.59367187 -101.3515625 217.93359375 C-103.15924936 216.61382237 -104.9665232 215.29348515 -106.7734375 213.97265625 C-116.52998857 206.41739913 -116.52998857 206.41739913 -127 200 C-127 199.34 -127 198.68 -127 198 C-128.051875 197.62875 -128.051875 197.62875 -129.125 197.25 C-132.39514548 195.82819762 -135.141122 194.12753712 -138 192 C-138 191.34 -138 190.68 -138 190 C-138.70898438 189.75507812 -139.41796875 189.51015625 -140.1484375 189.2578125 C-143.38472906 187.83029759 -145.82810061 186.03863915 -148.625 183.875 C-149.68825845 183.06048777 -150.75207246 182.24670032 -151.81640625 181.43359375 C-152.3489502 181.0247998 -152.88149414 180.61600586 -153.43017578 180.19482422 C-155.78105343 178.40552481 -158.17016909 176.67082441 -160.5625 174.9375 C-161.91021484 173.96103516 -161.91021484 173.96103516 -163.28515625 172.96484375 C-164.18105469 172.31644531 -165.07695312 171.66804688 -166 171 C-168.75197966 168.99962787 -171.5029407 166.99786017 -174.25390625 164.99609375 C-176.07286665 163.67391912 -177.89316349 162.35358096 -179.71484375 161.03515625 C-184.7256901 157.40462913 -189.71952525 153.75145886 -194.6875 150.0625 C-195.70199219 149.31097656 -196.71648438 148.55945312 -197.76171875 147.78515625 C-198.50035156 147.19605469 -199.23898438 146.60695313 -200 146 C-200 145.67 -200 145.34 -200 145 C-149.51 145 -99.02 145 -47 145 C-46.01 141.04 -45.02 137.08 -44 133 C-43.26945075 130.56659761 -42.51036677 128.14138891 -41.71020508 125.72998047 C-41.50107609 125.09557761 -41.2919471 124.46117476 -41.07648087 123.80754757 C-40.39481255 121.74275227 -39.70716043 119.68000443 -39.01953125 117.6171875 C-38.52856992 116.13301295 -38.03805698 114.64869001 -37.54795837 113.16423035 C-36.51037063 110.02369329 -35.47038871 106.88396482 -34.42834473 103.74490356 C-31.7041053 95.53761679 -28.99447507 87.32550311 -26.28515625 79.11328125 C-26.015182 78.29540823 -25.74520775 77.47753521 -25.46705246 76.63487816 C-19.79524202 59.44732469 -14.26665532 42.2160033 -8.82348633 24.95458984 C-8.52164932 24.0020784 -8.21981232 23.04956696 -7.90882874 22.06819153 C-7.36251127 20.34388096 -6.81912877 18.61863547 -6.2797699 16.89213562 C-4.45662336 11.14555329 -2.30147051 5.57133856 0 0 Z " fill="#FDD700" transform="translate(3014,1730)"/>
<path d="M0 0 C2.32517606 2.32517606 2.76917445 3.88121297 3.76147461 6.99804688 C4.10111237 8.05411133 4.44075012 9.11017578 4.79067993 10.19824219 C5.15752899 11.36000977 5.52437805 12.52177734 5.90234375 13.71875 C6.5003776 15.58552921 7.09841464 17.4523074 7.69657516 19.31904602 C8.33795328 21.32453272 8.97635525 23.33094509 9.61392212 25.33764648 C11.62661776 31.67159917 13.65771026 37.99966284 15.68678093 44.3283844 C16.388019 46.51624426 17.08851936 48.7043394 17.78895569 50.89245605 C22.94289466 66.98360549 28.21314966 83.03619332 33.49215698 99.08666992 C34.25470108 101.40531869 35.01689178 103.7240837 35.77871704 106.04296875 C36.45844251 108.11165685 37.13903172 110.18006156 37.82089233 112.24804688 C41.29145065 122.80847109 44.62897665 133.40535517 48 144 C123.24 144.495 123.24 144.495 200 145 C200 145.66 200 146.32 200 147 C198.07463615 148.52605205 196.14823186 149.92573238 194.125 151.3125 C192.82897203 152.21940213 191.53342174 153.12698717 190.23828125 154.03515625 C189.2011499 154.75856201 189.2011499 154.75856201 188.14306641 155.49658203 C184.50806731 158.04663038 180.91053741 160.64817855 177.3125 163.25 C176.55855957 163.79438721 175.80461914 164.33877441 175.02783203 164.8996582 C168.69190002 169.48197806 162.39818102 174.12034514 156.10888672 178.76635742 C147.04893979 185.45240175 137.90963888 192.02736019 128.77050781 198.60449219 C119.45295613 205.31231386 110.15676789 212.0466545 100.93652344 218.88793945 C97.14400138 221.69992303 93.33701383 224.48039041 89.46875 227.1875 C88.76580811 227.68491699 88.06286621 228.18233398 87.33862305 228.69482422 C86.02220835 229.62403946 84.69846303 230.54298577 83.36645508 231.44970703 C81.40870167 232.79457905 81.40870167 232.79457905 79 235 C79 238.30040581 79.15611635 239.98567407 80.11962891 242.98071289 C80.36979263 243.76775101 80.61995636 244.55478912 80.87770081 245.36567688 C81.15782516 246.22598007 81.43794952 247.08628326 81.7265625 247.97265625 C82.16965004 249.35598396 82.16965004 249.35598396 82.62168884 250.76725769 C83.61684598 253.86761942 84.62078489 256.96506132 85.625 260.0625 C86.33224115 262.25804421 87.03918383 264.45368459 87.74584961 266.64941406 C95.08667411 289.41525835 102.56734855 312.13608203 110.05721664 334.85324764 C111.9868667 340.70766592 113.90791857 346.56487415 115.82598877 352.4230957 C116.59620308 354.76973669 117.3696543 357.11531826 118.14666748 359.4597168 C119.17736246 362.56955353 120.19743933 365.68266995 121.21484375 368.796875 C121.51709366 369.69931946 121.81934357 370.60176392 122.13075256 371.53155518 C122.39560959 372.34968689 122.66046661 373.1678186 122.93334961 374.01074219 C123.16541611 374.71463074 123.3974826 375.41851929 123.63658142 376.14373779 C124 378 124 378 123 381 C122.51869629 380.64397705 122.03739258 380.2879541 121.54150391 379.92114258 C109.74939057 371.20323235 97.90278381 362.56604196 86 354 C75.99449602 346.79936792 66.02311522 339.55749214 56.10791016 332.23291016 C47.01110983 325.5197136 37.83513272 318.91724891 28.65771484 312.31494141 C19.36996453 305.63152001 10.11560859 298.91713828 1 292 C-4.88784293 295.87371643 -10.6735625 299.85726612 -16.375 304 C-17.52838867 304.8353125 -17.52838867 304.8353125 -18.70507812 305.6875 C-25.12553995 310.34558404 -31.509679 315.05240462 -37.88989258 319.76538086 C-46.95012057 326.45191991 -56.08993994 333.02705708 -65.22949219 339.60449219 C-73.68593359 345.69238983 -82.11872502 351.80890592 -90.5 358 C-96.93981058 362.75485653 -103.39349046 367.48959996 -109.875 372.1875 C-110.9897168 372.99864258 -110.9897168 372.99864258 -112.12695312 373.82617188 C-115.66801029 376.38632678 -119.19923499 378.8313282 -123 381 C-122.37384341 374.03266527 -120.08244426 367.68019954 -117.87109375 361.07421875 C-117.44467486 359.78564024 -117.01884158 358.49686781 -116.59355164 357.20791626 C-115.68641888 354.46181421 -114.77590215 351.71686846 -113.86260986 348.97280884 C-111.69751495 342.46658412 -109.55007063 335.95452753 -107.40184784 329.4427166 C-106.91663393 327.97215267 -106.43120503 326.50165967 -105.94556427 325.03123665 C-100.60120177 308.84871952 -95.39999287 292.62186767 -90.23999023 276.37963867 C-89.94009689 275.43717789 -89.64020355 274.4947171 -89.33122253 273.5236969 C-88.74968143 271.6952565 -88.16956643 269.86636179 -87.59101868 268.03697205 C-86.11000433 263.37771397 -84.57643312 258.74333527 -82.96777344 254.12646484 C-82.6371994 253.16902878 -82.30662537 252.21159271 -81.96603394 251.22514343 C-81.33389264 249.40295567 -80.69181327 247.58417397 -80.03811646 245.76960754 C-77.922967 239.95146209 -77.922967 239.95146209 -79 234 C-81.2018168 231.92439637 -81.2018168 231.92439637 -83.9375 230.25 C-84.83339844 229.65703125 -85.72929688 229.0640625 -86.65234375 228.453125 C-88.90530236 227.00964936 -88.90530236 227.00964936 -91 226 C-91 225.34 -91 224.68 -91 224 C-92.051875 223.62875 -92.051875 223.62875 -93.125 223.25 C-96.39514548 221.82819762 -99.141122 220.12753712 -102 218 C-102 217.34 -102 216.68 -102 216 C-102.70898438 215.75507812 -103.41796875 215.51015625 -104.1484375 215.2578125 C-107.38472906 213.83029759 -109.82810061 212.03863915 -112.625 209.875 C-113.68825845 209.06048777 -114.75207246 208.24670032 -115.81640625 207.43359375 C-116.3489502 207.0247998 -116.88149414 206.61600586 -117.43017578 206.19482422 C-119.78105343 204.40552481 -122.17016909 202.67082441 -124.5625 200.9375 C-125.46097656 200.28652344 -126.35945313 199.63554688 -127.28515625 198.96484375 C-128.18105469 198.31644531 -129.07695313 197.66804688 -130 197 C-131.83367166 195.66713198 -133.66700402 194.33379707 -135.5 193 C-136.41652344 192.33355469 -137.33304688 191.66710938 -138.27734375 190.98046875 C-140.01998636 189.71286501 -141.76221361 188.44468993 -143.50390625 187.17578125 C-152.31702211 180.75768008 -161.1596456 174.38049243 -170 168 C-171.59116197 166.85158485 -173.18230789 165.70314748 -174.7734375 164.5546875 C-175.54953369 163.99458984 -176.32562988 163.43449219 -177.12524414 162.85742188 C-178.65110731 161.75543644 -180.17634886 160.65258968 -181.70092773 159.54882812 C-184.98060783 157.17475585 -188.26372391 154.80752652 -191.57421875 152.4765625 C-192.58097656 151.76242187 -193.58773438 151.04828125 -194.625 150.3125 C-195.91277344 149.40951172 -195.91277344 149.40951172 -197.2265625 148.48828125 C-197.81179688 147.99714844 -198.39703125 147.50601562 -199 147 C-199 146.34 -199 145.68 -199 145 C-148.84 145 -98.68 145 -47 145 C-46.01 141.37 -45.02 137.74 -44 134 C-43.3792943 131.97539753 -42.74219791 129.95562166 -42.07739258 127.94506836 C-41.72826309 126.8841951 -41.37913361 125.82332184 -41.01942444 124.7303009 C-40.64820969 123.61145004 -40.27699493 122.49259918 -39.89453125 121.33984375 C-39.28655911 119.49447684 -38.67859092 117.64910862 -38.07078457 115.8036871 C-37.42799684 113.85352558 -36.78394226 111.90378666 -36.13952637 109.9541626 C-33.87884486 103.11372013 -31.62806871 96.27001851 -29.37890625 89.42578125 C-29.15158688 88.73425713 -28.9242675 88.042733 -28.69005966 87.3302536 C-23.48456909 71.48820899 -18.40598403 55.60608686 -13.37817383 39.70678711 C-9.15390206 26.38645309 -4.65664417 13.17531543 0 0 Z " fill="#FDD700" transform="translate(1921,1730)"/>
<path d="M0 0 C2 1 2 1 2.81619263 2.87181091 C3.08326019 3.69584915 3.35032776 4.51988739 3.62548828 5.36889648 C3.93468201 6.31050125 4.24387573 7.25210602 4.56243896 8.22224426 C4.89503723 9.26136459 5.2276355 10.30048492 5.5703125 11.37109375 C6.1001474 12.99630196 6.1001474 12.99630196 6.64068604 14.65434265 C7.80951072 18.24637651 8.96733128 21.84185668 10.125 25.4375 C10.93645553 27.93947082 11.74847357 30.44125927 12.56103516 32.94287109 C18.54313736 51.37780475 24.45812827 69.83475868 30.34423828 88.30053711 C33.42562292 97.96650975 36.51923481 107.62789074 39.6640625 117.2734375 C40.09384903 118.59252609 40.09384903 118.59252609 40.53231812 119.93826294 C41.86682636 124.03199819 43.20488784 128.12452337 44.54833984 132.21533203 C45.01147632 133.63311088 45.47453482 135.05091521 45.9375 136.46875 C46.33839844 137.69013672 46.73929688 138.91152344 47.15234375 140.16992188 C48 143 48 143 48 145 C98.49 145 148.98 145 201 145 C195.37414966 150.62585034 195.37414966 150.62585034 191.98828125 153.09375 C191.2398999 153.64232666 190.49151855 154.19090332 189.72045898 154.75610352 C188.92583252 155.33158936 188.13120605 155.9070752 187.3125 156.5 C186.475979 157.11093506 185.63945801 157.72187012 184.77758789 158.35131836 C182.18881152 160.23943916 179.59520648 162.12072963 177 164 C176.22301758 164.56348145 175.44603516 165.12696289 174.64550781 165.70751953 C170.18094238 168.94370323 165.7090766 172.16964261 161.23388672 175.39111328 C157.48640231 178.09012118 153.74338799 180.79531494 150 183.5 C145.51389621 186.74131453 141.02695169 189.98141954 136.53515625 193.21484375 C128.02888127 199.34174112 119.56352339 205.52003211 111.13208008 211.74951172 C100.49455269 219.60062808 89.76307539 227.32215172 79 235 C80.59221095 243.02975975 83.05117668 250.70434866 85.59375 258.4765625 C86.05815064 259.90631592 86.52219719 261.33618439 86.98591614 262.76615906 C87.97312311 265.80761761 88.96299268 268.84819145 89.95498657 271.88809204 C91.51124423 276.65723691 93.06088591 281.42851701 94.61010742 286.19995117 C99.31464658 300.68131628 104.04241128 315.15490315 108.8111763 329.61524963 C109.44888873 331.54952132 110.08593817 333.48401002 110.7227478 335.4185791 C112.67104609 341.33639561 114.62450081 347.25237227 116.58984375 353.16455078 C117.28539335 355.27238271 117.98071935 357.38028845 118.67578125 359.48828125 C118.98618851 360.41436691 119.29659576 361.34045258 119.6164093 362.29460144 C121.53349158 368.13510099 122.93234149 373.94651395 124 380 C119.20995421 378.43981366 115.73833903 375.73160237 111.8125 372.6875 C110.37998129 371.59494317 108.9463461 370.50384901 107.51171875 369.4140625 C106.76970215 368.84977539 106.02768555 368.28548828 105.26318359 367.70410156 C101.58859432 364.93725872 97.85931422 362.24791365 94.125 359.5625 C93.37508789 359.02254395 92.62517578 358.48258789 91.85253906 357.92626953 C89.56908052 356.28317431 87.28456483 354.64155655 85 353 C74.04532202 345.11969169 63.14115616 337.17590392 52.28515625 329.16015625 C47.20934207 325.41337917 42.10851979 321.70206023 37 318 C35.16643885 316.66697997 33.33311064 315.33363948 31.5 314 C30.58992187 313.33871094 29.67984375 312.67742187 28.7421875 311.99609375 C26.93263388 310.67888307 25.12528983 309.35863088 23.3203125 308.03515625 C20.55534466 306.01152037 17.77779756 304.00597998 15 302 C14.44425293 301.58975586 13.88850586 301.17951172 13.31591797 300.75683594 C11.57319888 299.47170772 9.81907036 298.20360584 8.0625 296.9375 C7.00160156 296.16277344 5.94070313 295.38804687 4.84765625 294.58984375 C2.25372429 292.7726002 2.25372429 292.7726002 0.05297852 293.24536133 C-2.1823438 294.06702636 -3.7805188 295.07084925 -5.6953125 296.484375 C-6.40163818 297.00056396 -7.10796387 297.51675293 -7.83569336 298.04858398 C-8.59116455 298.61005127 -9.34663574 299.17151855 -10.125 299.75 C-11.75376288 300.94420598 -13.38267317 302.13821093 -15.01171875 303.33203125 C-15.8423584 303.94385254 -16.67299805 304.55567383 -17.52880859 305.18603516 C-20.58192345 307.4271578 -23.65467717 309.64006309 -26.72998047 311.85058594 C-33.6886369 316.85293794 -40.60682439 321.90785823 -47.5 327 C-57.35407821 334.27942622 -67.28574334 341.44830324 -77.22949219 348.60449219 C-86.66781454 355.39925817 -96.0633354 362.24683297 -105.41503906 369.16040039 C-110.88357814 373.19629257 -116.38915753 377.16327996 -122 381 C-123.40256026 378.19487948 -122.55743498 377.00629139 -121.5949707 374.04956055 C-121.2582988 373.00307343 -120.92162689 371.9565863 -120.57475281 370.87838745 C-120.19559219 369.72613678 -119.81643158 368.57388611 -119.42578125 367.38671875 C-119.03449539 366.17823273 -118.64320953 364.9697467 -118.24006653 363.72463989 C-117.1643952 360.40332555 -116.07939679 357.08512401 -114.99271393 353.76739883 C-113.85490573 350.28830814 -112.72564048 346.80644597 -111.59521484 343.32495117 C-108.74233526 334.54597398 -105.87242838 325.77259678 -103 317 C-102.52735293 315.55603393 -102.05471693 314.11206423 -101.58209229 312.66809082 C-97.60425962 300.51610689 -93.62444281 288.36477516 -89.6262207 276.21948242 C-86.19282067 265.78637539 -82.76285155 255.35236961 -79.4296875 244.88671875 C-79.17841095 244.10367874 -78.9271344 243.32063873 -78.66824341 242.51387024 C-77.43352633 238.82927165 -77.43352633 238.82927165 -77 235 C-79.40231522 233.16673512 -81.81627307 231.44769613 -84.3125 229.75 C-85.88405528 228.6619491 -87.45432158 227.57203459 -89.0234375 226.48046875 C-89.84424805 225.90989746 -90.66505859 225.33932617 -91.51074219 224.75146484 C-95.53456496 221.92026589 -99.48601551 218.99341593 -103.4375 216.0625 C-109.62077039 211.48544545 -115.82233299 206.93673114 -122.0625 202.4375 C-123.17141602 201.63795898 -123.17141602 201.63795898 -124.30273438 200.82226562 C-126.53463937 199.21412447 -128.76718791 197.60688142 -131 196 C-140.20059747 189.37863265 -149.38226106 182.7351908 -158.5 176 C-164.77202494 171.36848933 -171.05807536 166.75763313 -177.375 162.1875 C-178.11347168 161.65278076 -178.85194336 161.11806152 -179.61279297 160.56713867 C-183.05203837 158.08708366 -186.50660036 155.63831534 -190.015625 153.2578125 C-190.62873535 152.84120361 -191.2418457 152.42459473 -191.87353516 151.99536133 C-193.50720584 150.89205293 -195.14787647 149.79912911 -196.7890625 148.70703125 C-197.51867187 148.14371094 -198.24828125 147.58039063 -199 147 C-199 146.34 -199 145.68 -199 145 C-148.51 145 -98.02 145 -46 145 C-45.34 141.7 -44.68 138.4 -44 135 C-43.32213762 132.63817205 -42.59898452 130.28870657 -41.82373047 127.95703125 C-41.61474751 127.32291478 -41.40576454 126.68879831 -41.19044876 126.03546619 C-40.50479635 123.95929893 -39.81098995 121.88595636 -39.1171875 119.8125 C-38.62466259 118.32560317 -38.13272318 116.83851228 -37.6413269 115.35124207 C-36.59863505 112.19854833 -35.55260525 109.04699174 -34.50378418 105.89633179 C-32.0377977 98.48747289 -29.58934569 91.07281482 -27.14038086 83.65831566 C-26.59302253 82.00133686 -26.0454553 80.34442705 -25.49768066 78.68758583 C-19.82795448 61.53729493 -14.2973862 44.34476734 -8.82373047 27.13085938 C-8.23144689 25.26822867 -7.6391618 23.40559843 -7.046875 21.54296875 C-6.77541656 20.68871307 -6.50395813 19.8344574 -6.22427368 18.95431519 C-4.20655749 12.61667249 -2.13639953 6.29877978 0 0 Z " fill="#FDD700" transform="translate(825,1730)"/>
<path d="" fill="#C4A237" transform="translate(0,0)"/>
<path d="" fill="#C4A237" transform="translate(0,0)"/>
<path d="" fill="#C4A237" transform="translate(0,0)"/>
</svg>
