<?xml version="1.0" encoding="UTF-8"?>
<svg version="1.1" xmlns="http://www.w3.org/2000/svg" width="171" height="148">
<path d="M0 0 C56.43 0 112.86 0 171 0 C171 48.84 171 97.68 171 148 C114.57 148 58.14 148 0 148 C0 99.16 0 50.32 0 0 Z " fill="#FEFEFE" transform="translate(0,0)"/>
<path d="M0 0 C2.99904054 2.91335367 3.14940144 3.66019761 3.5 7.9375 C3.46982024 11.25727327 3.1935988 12.11544521 1.3125 15.0625 C-1.60538343 17.89456333 -2.2716417 18.11567486 -6.4375 18.1875 C-7.55125 18.166875 -8.665 18.14625 -9.8125 18.125 C-9.8125 20.435 -9.8125 22.745 -9.8125 25.125 C-11.4625 25.125 -13.1125 25.125 -14.8125 25.125 C-14.8125 16.545 -14.8125 7.965 -14.8125 -0.875 C-4.0125 -2.675 -4.0125 -2.675 0 0 Z " fill="#2B3881" transform="translate(98.8125,63.875)"/>
<path d="M0 0 C0.78246094 0.05542969 1.56492187 0.11085937 2.37109375 0.16796875 C5.32076744 1.03551984 6.09087667 2.1460477 7.5625 4.8125 C8.53102801 9.77620607 8.29974798 13.66055004 5.5625 17.9375 C2.26462318 19.99867301 0.3347489 20.62419168 -3.5 20.35546875 C-6.27741718 19.57711998 -7.95769683 18.00048895 -9.58984375 15.66015625 C-11.21302905 12.12206111 -10.99055275 9.68386924 -10.4375 5.8125 C-7.43506237 1.10868104 -5.50811962 -0.47936016 0 0 Z " fill="#2C3982" transform="translate(73.4375,62.1875)"/>
<path d="M0 0 C2.9375 2.1875 2.9375 2.1875 5 5 C5 6.98 5 8.96 5 11 C0.38 11 -4.24 11 -9 11 C-8.01 12.485 -8.01 12.485 -7 14 C-4.79274927 14.36362818 -4.79274927 14.36362818 -2.375 14.1875 C-1.55773437 14.16042969 -0.74046875 14.13335937 0.1015625 14.10546875 C0.72804687 14.07066406 1.35453125 14.03585938 2 14 C2 15.32 2 16.64 2 18 C-1.21694364 19.60847182 -4.52137222 19.61309149 -8 19 C-11.61391202 16.07811368 -13.74312565 13.88374526 -14.375 9.25 C-13.8528401 4.7246142 -12.15770622 3.2328897 -9 0 C-5.77509551 -1.61245225 -3.43772273 -0.81573082 0 0 Z " fill="#4D5895" transform="translate(149,63)"/>
<path d="M0 0 C0.33 2.64 0.66 5.28 1 8 C2.3303125 7.87625 2.3303125 7.87625 3.6875 7.75 C7.87904996 8.06634339 9.15685138 8.92632581 12 12 C12.37233017 14.96672677 12.4808246 17.31856241 12.3125 20.25 C12.28994141 20.99507812 12.26738281 21.74015625 12.24414062 22.5078125 C12.18543561 24.339409 12.09575757 26.16996653 12 28 C10.35 28 8.7 28 7 28 C6.67 23.05 6.34 18.1 6 13 C4.35 13 2.7 13 1 13 C0.67 17.95 0.34 22.9 0 28 C-1.65 28 -3.3 28 -5 28 C-5 19.09 -5 10.18 -5 1 C-2 0 -2 0 0 0 Z " fill="#3B468A" transform="translate(13,54)"/>
<path d="M0 0 C2.4375 1.625 2.4375 1.625 4 4 C4.25 7.75 4.25 7.75 4 11 C-0.29 11 -4.58 11 -9 11 C-8.67 11.99 -8.34 12.98 -8 14 C-4.7 14 -1.4 14 2 14 C2.33 14.99 2.66 15.98 3 17 C-1.03485494 19.68990329 -4.26228652 19.77993882 -9 19 C-12.0625 17.0625 -12.0625 17.0625 -14 14 C-14.69022545 10.84549858 -14.73034598 8.14961704 -14 5 C-9.55853846 -0.61026721 -6.92466292 -1.55207962 0 0 Z " fill="#354188" transform="translate(41,63)"/>
<path d="M0 0 C2.875 1.5 2.875 1.5 5 4 C5.42242213 6.80188855 5.23816991 9.1419611 5 12 C0.71 12 -3.58 12 -8 12 C-7.01 13.485 -7.01 13.485 -6 15 C-3.79274927 15.36362818 -3.79274927 15.36362818 -1.375 15.1875 C-0.55773437 15.16042969 0.25953125 15.13335937 1.1015625 15.10546875 C1.72804688 15.07066406 2.35453125 15.03585938 3 15 C3 16.32 3 17.64 3 19 C1.44049449 20.55950551 -0.08877131 20.28196698 -2.25 20.375 C-5.78381129 20.30736725 -6.93409495 20.04035003 -10.0625 18.125 C-12.77980093 13.74225657 -13.16112886 10.02332342 -12 5 C-9.13565257 0.60083159 -5.11249011 -0.97898747 0 0 Z " fill="#354187" transform="translate(116,62)"/>
<path d="M0 0 C0 1.65 0 3.3 0 5 C1.65 5 3.3 5 5 5 C5 6.32 5 7.64 5 9 C3.35 9 1.7 9 0 9 C0 12.96 0 16.92 0 21 C1.98 20.67 3.96 20.34 6 20 C6 21.65 6 23.3 6 25 C0.04296875 25.390625 0.04296875 25.390625 -2 25 C-4.47089399 22.70559844 -4.96555734 21.35452982 -5.29296875 17.984375 C-5.24076172 16.38335937 -5.24076172 16.38335937 -5.1875 14.75 C-5.14689453 13.13351563 -5.14689453 13.13351563 -5.10546875 11.484375 C-5.07066406 10.66453125 -5.03585938 9.8446875 -5 9 C-5.66 9 -6.32 9 -7 9 C-7 8.01 -7 7.02 -7 6 C-6.34 6 -5.68 6 -5 6 C-5 4.35 -5 2.7 -5 1 C-2 0 -2 0 0 0 Z " fill="#3E498C" transform="translate(129,57)"/>
<path d="M0 0 C0.99 0.33 1.98 0.66 3 1 C3.33 9.58 3.66 18.16 4 27 C2.68 27.33 1.36 27.66 0 28 C-2 26 -2 26 -2.22705078 23.47802734 C-2.21657715 22.4411377 -2.20610352 21.40424805 -2.1953125 20.3359375 C-2.18886719 19.21445313 -2.18242188 18.09296875 -2.17578125 16.9375 C-2.15902344 15.761875 -2.14226563 14.58625 -2.125 13.375 C-2.11597656 12.19164063 -2.10695312 11.00828125 -2.09765625 9.7890625 C-2.07402812 6.85917477 -2.04108514 3.9296866 -2 1 C-1.34 0.67 -0.68 0.34 0 0 Z " fill="#FFD76F" transform="translate(58,54)"/>
<path d="M0 0 C1.98 0.495 1.98 0.495 4 1 C4 9.91 4 18.82 4 28 C2.68 28 1.36 28 0 28 C-1.3241409 25.35171821 -1.12957042 23.33319888 -1.1328125 20.37109375 C-1.13410156 19.25412109 -1.13539062 18.13714844 -1.13671875 16.98632812 C-1.13285156 15.81521484 -1.12898438 14.64410156 -1.125 13.4375 C-1.12886719 12.26251953 -1.13273437 11.08753906 -1.13671875 9.87695312 C-1.13542969 8.76126953 -1.13414063 7.64558594 -1.1328125 6.49609375 C-1.13168457 5.46669678 -1.13055664 4.4372998 -1.12939453 3.37670898 C-1 1 -1 1 0 0 Z " fill="#FFD669" transform="translate(48,54)"/>
<path d="M0 0 C2.86724686 0.57344937 3.8614515 0.8614515 6 3 C10.00536855 4.14439101 13.8587071 4.36975829 18 4 C20.73219193 2.08140833 20.73219193 2.08140833 23 0 C23.99 0 24.98 0 26 0 C25.875 2.25 25.875 2.25 25 5 C20.82718018 8.66393935 16.54685979 10.27993498 11 10 C6.65108976 8.98084572 2.80195183 7.6209839 0 4 C0 2.68 0 1.36 0 0 Z " fill="#FFD871" transform="translate(42,85)"/>
<path d="M0 0 C0.66 0 1.32 0 2 0 C2.33 2.64 2.66 5.28 3 8 C4.3303125 7.87625 4.3303125 7.87625 5.6875 7.75 C9.87904996 8.06634339 11.15685138 8.92632581 14 12 C14.37233017 14.96672677 14.4808246 17.31856241 14.3125 20.25 C14.27866211 21.36761719 14.27866211 21.36761719 14.24414062 22.5078125 C14.18543561 24.339409 14.09575757 26.16996653 14 28 C12.35 28 10.7 28 9 28 C8.67 23.05 8.34 18.1 8 13 C5.69 12.01 3.38 11.02 1 10 C0.67 6.7 0.34 3.4 0 0 Z " fill="#46508F" transform="translate(11,54)"/>
<path d="M0 0 C3.73353364 0.2871949 6.32404139 0.53202866 9.4375 2.6875 C11 5 11 5 11 11 C4.07 10.505 4.07 10.505 -3 10 C-2.07377893 6.29511572 -1.32789515 4.83395931 1 2 C0.67 1.34 0.34 0.68 0 0 Z " fill="#2F3C83" transform="translate(142,62)"/>
<path d="M0 0 C1.134375 0.020625 2.26875 0.04125 3.4375 0.0625 C3.4375 0.7225 3.4375 1.3825 3.4375 2.0625 C2.7775 2.0625 2.1175 2.0625 1.4375 2.0625 C1.4375 2.7225 1.4375 3.3825 1.4375 4.0625 C-0.5425 4.7225 -2.5225 5.3825 -4.5625 6.0625 C-4.8925 10.3525 -5.2225 14.6425 -5.5625 19.0625 C-6.8825 19.0625 -8.2025 19.0625 -9.5625 19.0625 C-9.5625 13.1225 -9.5625 7.1825 -9.5625 1.0625 C-7.9125 1.0625 -6.2625 1.0625 -4.5625 1.0625 C-3.5625 0.0625 -3.5625 0.0625 0 0 Z " fill="#24327E" transform="translate(165.5625,61.9375)"/>
<path d="M0 0 C3.0625 0.1875 3.0625 0.1875 5.0625 2.1875 C5.328125 4.0625 5.328125 4.0625 5.3125 6.1875 C5.31765625 6.88875 5.3228125 7.59 5.328125 8.3125 C5.0625 10.1875 5.0625 10.1875 3.0625 12.1875 C0 12.375 0 12.375 -2.9375 12.1875 C-3.9375 11.1875 -3.9375 11.1875 -4.0703125 8.9375 C-4.06773438 8.03 -4.06515625 7.1225 -4.0625 6.1875 C-4.06507812 5.28 -4.06765625 4.3725 -4.0703125 3.4375 C-3.86801561 0.01035262 -3.49011104 0.22277304 0 0 Z " fill="#EAEBF2" transform="translate(91.9375,65.8125)"/>
<path d="M0 0 C0.33 0 0.66 0 1 0 C1 7.92 1 15.84 1 24 C1.99 24 2.98 24 4 24 C4 21.69 4 19.38 4 17 C4.66 17 5.32 17 6 17 C6 16.34 6 15.68 6 15 C6.7425 14.7525 7.485 14.505 8.25 14.25 C11.20603427 12.90634806 12.76687128 11.31013315 15 9 C15.66 9 16.32 9 17 9 C17 7.35 17 5.7 17 4 C17.33 4 17.66 4 18 4 C18.49029622 11.23186925 18.49029622 11.23186925 16.125 14.9375 C13.20711657 17.76956333 12.5408583 17.99067486 8.375 18.0625 C7.26125 18.041875 6.1475 18.02125 5 18 C5 20.31 5 22.62 5 25 C3.35 25 1.7 25 0 25 C0 16.75 0 8.5 0 0 Z " fill="#444F8F" transform="translate(84,64)"/>
<path d="M0 0 C2.5 0.25 2.5 0.25 4.5 2.25 C4.81537716 6.58643601 4.94897847 8.57653229 2.5 12.25 C0 12.5625 0 12.5625 -2.5 12.25 C-4.5 10.25 -4.5 10.25 -4.765625 8.375 C-4.76046875 7.67375 -4.7553125 6.9725 -4.75 6.25 C-4.75515625 5.54875 -4.7603125 4.8475 -4.765625 4.125 C-4.31971142 0.97737476 -3.03899237 0.30389924 0 0 Z " fill="#F2F3F7" transform="translate(72.5,65.75)"/>
<path d="M0 0 C0.66 0 1.32 0 2 0 C2 1.32 2 2.64 2 4 C5.3 4 8.6 4 12 4 C12 4.33 12 4.66 12 5 C8.7 5 5.4 5 2 5 C2.66 6.32 3.32 7.64 4 9 C7.3 9 10.6 9 14 9 C14.33 9.99 14.66 10.98 15 12 C10.96440375 14.6903975 7.73651279 14.65832398 3 14 C0.4375 12.5625 0.4375 12.5625 -1 10 C-1.36108698 6.96262132 -1.37573855 4.03670665 -1 1 C-0.67 0.67 -0.34 0.34 0 0 Z " fill="#26337E" transform="translate(29,68)"/>
<path d="M0 0 C1.32 0.33 2.64 0.66 4 1 C3.360625 1.763125 2.72125 2.52625 2.0625 3.3125 C-0.14232781 5.88246713 -0.14232781 5.88246713 -1 9 C2.3 9 5.6 9 9 9 C9 9.33 9 9.66 9 10 C5.7 10 2.4 10 -1 10 C-1 10.66 -1 11.32 -1 12 C-1.66 12 -2.32 12 -3 12 C-3.33 12.66 -3.66 13.32 -4 14 C-5.45147903 11.09704195 -5.37239025 9.22738221 -5 6 C-3.52631484 3.72248656 -1.88564762 1.97993 0 0 Z " fill="#2C3882" transform="translate(140,63)"/>
<path d="M0 0 C2.38351973 0.41095168 3.68216529 0.65259927 5.34375 2.46875 C7.40762141 4.37685753 8.94721025 4.67121353 11.6875 5.1875 C12.49574219 5.34605469 13.30398437 5.50460938 14.13671875 5.66796875 C15.05904297 5.83232422 15.05904297 5.83232422 16 6 C15.01 7.485 15.01 7.485 14 9 C9.76286391 9.5703837 7.46509037 9.23254518 3.625 7.3125 C1 5 1 5 0.125 2.25 C0.08375 1.5075 0.0425 0.765 0 0 Z " fill="#FFD360" transform="translate(42,85)"/>
<path d="M0 0 C0.66 0.33 1.32 0.66 2 1 C3.54023996 1.06950541 5.08334988 1.08452357 6.625 1.0625 C7.44226563 1.05347656 8.25953125 1.04445313 9.1015625 1.03515625 C9.72804688 1.02355469 10.35453125 1.01195313 11 1 C11 2.32 11 3.64 11 5 C9.41105928 6.58894072 7.75198576 6.16998411 5.5625 6.1875 C4.35787109 6.20876953 4.35787109 6.20876953 3.12890625 6.23046875 C1 6 1 6 -1 4 C-1.33 3.01 -1.66 2.02 -2 1 C-1.34 0.67 -0.68 0.34 0 0 Z " fill="#3F4A8C" transform="translate(108,76)"/>
<path d="M0 0 C0.33 0 0.66 0 1 0 C1.33 1.98 1.66 3.96 2 6 C2.99 4.68 3.98 3.36 5 2 C5.309375 3.093125 5.61875 4.18625 5.9375 5.3125 C6.58337897 7.55407994 7.2623117 9.7869351 8 12 C9.65 12.33 11.3 12.66 13 13 C13 13.33 13 13.66 13 14 C10.0717158 14.29779161 7.85647674 14.49631943 5 14 C1.84678891 11.37232409 0.2605521 9.88815679 -0.30078125 5.8203125 C-0.3125 3.625 -0.3125 3.625 0 0 Z " fill="#485290" transform="translate(63,68)"/>
<path d="M0 0 C1.65 0 3.3 0 5 0 C3.68 0.33 2.36 0.66 1 1 C1 9.58 1 18.16 1 27 C0.67 27 0.34 27 0 27 C-0.33 23.04 -0.66 19.08 -1 15 C-1.33 15 -1.66 15 -2 15 C-2.19392201 9.47322267 -1.7479503 5.24385089 0 0 Z " fill="#DADCE7" transform="translate(83,62)"/>
<path d="M0 0 C2 1.0625 2 1.0625 4 3 C4.25 6.6875 4.25 6.6875 4 10 C-0.29 10 -4.58 10 -9 10 C-9 9.67 -9 9.34 -9 9 C-6.03 9 -3.06 9 0 9 C0 6.03 0 3.06 0 0 Z " fill="#2C3882" transform="translate(117,63)"/>
<path d="M0 0 C1.2065625 0.0309375 1.2065625 0.0309375 2.4375 0.0625 C3.0975 1.7125 3.7575 3.3625 4.4375 5.0625 C1.1375 5.0625 -2.1625 5.0625 -5.5625 5.0625 C-3.06867284 0.07484568 -3.06867284 0.07484568 0 0 Z " fill="#E3E4ED" transform="translate(36.5625,65.9375)"/>
<path d="M0 0 C2.5625 0.1875 2.5625 0.1875 4.5625 2.1875 C4.5625 3.1775 4.5625 4.1675 4.5625 5.1875 C1.5925 5.1875 -1.3775 5.1875 -4.4375 5.1875 C-3.20220588 0.24632353 -3.20220588 0.24632353 0 0 Z " fill="#EAEBF1" transform="translate(144.4375,65.8125)"/>
<path d="M0 0 C2.5625 0.1875 2.5625 0.1875 4.5625 2.1875 C4.5625 3.1775 4.5625 4.1675 4.5625 5.1875 C1.5925 5.1875 -1.3775 5.1875 -4.4375 5.1875 C-3.20220588 0.24632353 -3.20220588 0.24632353 0 0 Z " fill="#E8E9F0" transform="translate(112.4375,65.8125)"/>
<path d="M0 0 C-1 3 -1 3 -3 4 C-5.6723621 4.13415472 -8.32250488 4.04318541 -11 4 C-11.33 3.34 -11.66 2.68 -12 2 C-10.56656 1.46809459 -9.12804633 0.94984742 -7.6875 0.4375 C-6.48673828 0.00244141 -6.48673828 0.00244141 -5.26171875 -0.44140625 C-3 -1 -3 -1 0 0 Z " fill="#354086" transform="translate(152,78)"/>
<path d="M0 0 C-0.67097672 4.19360449 -2.8558394 7.40334352 -5 11 C-5.33 11 -5.66 11 -6 11 C-6.34886026 5.67988107 -6.34886026 5.67988107 -6 3 C-3.95950963 0.82347693 -2.99435075 0 0 0 Z " fill="#26327E" transform="translate(70,64)"/>
<path d="M0 0 C0 0.66 0 1.32 0 2 C-3.20380017 4.13586678 -4.01939967 4.23132175 -7.6875 4.125 C-8.89986328 4.09792969 -8.89986328 4.09792969 -10.13671875 4.0703125 C-11.05904297 4.03550781 -11.05904297 4.03550781 -12 4 C-12 3.67 -12 3.34 -12 3 C-10.35 2.67 -8.7 2.34 -7 2 C-7.99 1.34 -8.98 0.68 -10 0 C-3.375 -1.125 -3.375 -1.125 0 0 Z " fill="#485391" transform="translate(44,78)"/>
<path d="M0 0 C0.66 0.66 1.32 1.32 2 2 C1.34 3.32 0.68 4.64 0 6 C-0.99 6 -1.98 6 -3 6 C-3.33 8.64 -3.66 11.28 -4 14 C-4.33 14 -4.66 14 -5 14 C-5.78774617 5.96498906 -5.78774617 5.96498906 -2.5 1.9375 C-1.2625 0.9784375 -1.2625 0.9784375 0 0 Z " fill="#4C5694" transform="translate(32,63)"/>
<path d="M0 0 C2.875 0.375 2.875 0.375 4.875 2.375 C4.545 3.035 4.215 3.695 3.875 4.375 C1.895 4.375 -0.085 4.375 -2.125 4.375 C-2.125 3.715 -2.125 3.055 -2.125 2.375 C-3.775 3.035 -5.425 3.695 -7.125 4.375 C-4.78988517 1.50101252 -3.75068199 0.45008184 0 0 Z " fill="#3A4689" transform="translate(72.125,61.625)"/>
<path d="M0 0 C2.31 0 4.62 0 7 0 C7 0.66 7 1.32 7 2 C6.34 2 5.68 2 5 2 C5 2.66 5 3.32 5 4 C3.02 4.33 1.04 4.66 -1 5 C-0.67 3.35 -0.34 1.7 0 0 Z " fill="#3F4A8D" transform="translate(162,62)"/>
<path d="M0 0 C1.65 0 3.3 0 5 0 C5.33 0.66 5.66 1.32 6 2 C5.67 2.66 5.34 3.32 5 4 C3.68 4 2.36 4 1 4 C0.67 2.68 0.34 1.36 0 0 Z " fill="#394589" transform="translate(142,62)"/>
</svg>
