<?xml version="1.0" encoding="UTF-8"?>
<svg version="1.1" xmlns="http://www.w3.org/2000/svg" width="300" height="300">
<path d="M0 0 C1.34650635 0.37125 1.34650635 0.37125 2.72021484 0.75 C29.07364305 8.29327049 51.35038088 21.05215299 71 40 C71.77859375 40.71542969 72.5571875 41.43085937 73.359375 42.16796875 C95.55975993 63.14811976 108.26294881 92.49426712 114 122 C114.17885742 122.91330078 114.35771484 123.82660156 114.54199219 124.76757812 C115.08267018 128.58345056 115.19872125 132.34913425 115.23828125 136.1953125 C115.2480751 136.97649445 115.25786896 137.75767639 115.26795959 138.56253052 C115.58852195 170.74683115 115.58852195 170.74683115 111 186 C110.78569336 186.75539062 110.57138672 187.51078125 110.35058594 188.2890625 C103.367876 212.6014965 90.21115623 233.59900499 73 252 C72.17757813 252.88816406 71.35515625 253.77632813 70.5078125 254.69140625 C49.02425332 277.09933222 20.28461852 290.4681347 -10 296 C-10.90137695 296.1750708 -11.80275391 296.3501416 -12.73144531 296.53051758 C-16.52505525 297.07541688 -20.25800048 297.18070991 -24.08203125 297.203125 C-24.85447678 297.20882507 -25.6269223 297.21452515 -26.42277527 297.22039795 C-28.05747121 297.22981278 -29.69218582 297.23636789 -31.3269043 297.24023438 C-33.76712722 297.24982174 -36.20646292 297.28082748 -38.64648438 297.3125 C-77.13260472 297.57278694 -112.89570249 281.39326506 -140.45019531 254.90112305 C-159.75314814 235.85215644 -173.77529599 212.13930505 -181 186 C-181.21172852 185.24783203 -181.42345703 184.49566406 -181.64160156 183.72070312 C-184.87621022 171.65371616 -185.38769939 159.66766742 -185.4375 147.25 C-185.44376404 146.52104523 -185.45002808 145.79209045 -185.45648193 145.04104614 C-185.53397942 130.77970237 -183.60980835 116.92472553 -179.4375 103.25 C-179.06286621 102.02083862 -179.06286621 102.02083862 -178.68066406 100.7668457 C-166.49229029 62.72685903 -138.96985828 31.06664745 -103.66015625 12.71484375 C-92.46997803 7.08099773 -81.13169624 3.07390952 -69 0 C-67.7315625 -0.3403125 -66.463125 -0.680625 -65.15625 -1.03125 C-45.22762642 -5.47813295 -19.70285278 -5.44113302 0 0 Z " fill="#353535" transform="translate(185,3)"/>
<path d="M0 0 C0.96566895 0.00563965 1.93133789 0.0112793 2.92626953 0.01708984 C29.30223031 0.46056779 52.90323971 11.92938241 71.15625 30.79296875 C90.13929613 52.34942078 95.72297039 77.23753057 94.375 105.3125 C93.43700503 116.48965786 89.33129618 126.39728248 84.375 136.3125 C83.83875 137.38628906 83.3025 138.46007812 82.75 139.56640625 C78.4123282 147.56398864 72.75206743 153.92657553 66.375 160.3125 C65.570625 161.12847656 64.76625 161.94445312 63.9375 162.78515625 C46.99527304 179.03074559 23.31181254 186.96998171 0.12792969 186.72119141 C-8.02423847 186.47347359 -15.70256874 185.23884459 -23.625 183.3125 C-24.91664062 183.03986328 -24.91664062 183.03986328 -26.234375 182.76171875 C-39.36057216 179.5242171 -51.84491396 171.38274108 -61.625 162.3125 C-62.82382813 161.21615234 -62.82382813 161.21615234 -64.046875 160.09765625 C-76.95123427 147.77789044 -85.33047644 131.53579976 -89.625 114.3125 C-89.84929687 113.49523437 -90.07359375 112.67796875 -90.3046875 111.8359375 C-95.62984751 88.85750733 -90.30433781 65.08343428 -78.7109375 44.99609375 C-64.93635139 23.51103214 -44.58387318 8.1317521 -19.625 2.3125 C-18.65216064 2.05762817 -18.65216064 2.05762817 -17.65966797 1.79760742 C-11.73005362 0.32602909 -6.09734703 -0.03756507 0 0 Z " fill="#FEFEFE" transform="translate(148.625,56.6875)"/>
<path d="M0 0 C2.08984375 1.28515625 2.08984375 1.28515625 3.9375 3.0625 C4.6078125 3.70316406 5.278125 4.34382813 5.96875 5.00390625 C6.97421875 5.99197266 6.97421875 5.99197266 8 7 C9.00546875 7.87978516 9.00546875 7.87978516 10.03125 8.77734375 C13.01751884 11.47600063 14.82528376 13.61416831 16.5 17.3125 C15.02099697 28.22014733 -2.38195156 40.52577826 -9.9609375 48.09375 C-11.60013166 49.73361882 -13.23917744 51.37363597 -14.87808228 53.01379395 C-18.29389101 56.43106913 -21.71148237 59.84654853 -25.13037109 63.26074219 C-29.51528217 67.63992483 -33.89564564 72.02362468 -38.2747097 76.40865326 C-41.6494316 79.78698229 -45.02652356 83.16293399 -48.40434647 86.53816223 C-50.02144416 88.15459271 -51.63779898 89.77176672 -53.2533989 91.38969421 C-55.50295101 93.64177874 -57.75567102 95.8906453 -60.00927734 98.13867188 C-60.67630676 98.80772552 -61.34333618 99.47677917 -62.03057861 100.16610718 C-62.64434357 100.77705231 -63.25810852 101.38799744 -63.89047241 102.01745605 C-64.42171911 102.54832573 -64.95296581 103.0791954 -65.5003109 103.62615204 C-68.04498434 105.95729815 -69.5818482 106.97216771 -73.05908203 107.20361328 C-79.01783756 106.11093767 -82.98730617 100.86437806 -87.0546875 96.7421875 C-88.00548428 95.79543742 -88.9571698 94.84957912 -89.90969849 93.90457153 C-91.89794441 91.92514825 -93.87499326 89.93534101 -95.84472656 87.9375 C-98.36316249 85.38487854 -100.90758628 82.86015039 -103.4610424 80.34261894 C-105.42972142 78.39568205 -107.38381123 76.4346034 -109.33386612 74.46902847 C-110.71790288 73.07907592 -112.11397427 71.7011402 -113.51022339 70.32345581 C-120.43537431 63.24205156 -120.43537431 63.24205156 -121.15063477 59.00830078 C-120.97646031 55.52989286 -120.47935635 54.45387603 -118.0625 52 C-117.41410156 51.34 -116.76570313 50.68 -116.09765625 50 C-115.40542969 49.34 -114.71320313 48.68 -114 48 C-113.00806641 46.9790625 -113.00806641 46.9790625 -111.99609375 45.9375 C-107.12654564 41.21089362 -107.12654564 41.21089362 -102.703125 40.3828125 C-97.42702269 41.26216288 -95.24325128 44.01125237 -91.75 47.875 C-90.53837605 49.16586518 -89.32490494 50.45499968 -88.109375 51.7421875 C-87.31998535 52.60626221 -87.31998535 52.60626221 -86.51464844 53.48779297 C-84.87154681 55.22670363 -84.87154681 55.22670363 -82 57 C-82 57.66 -82 58.32 -82 59 C-81.071875 59.433125 -81.071875 59.433125 -80.125 59.875 C-78 61 -78 61 -76 63 C-73.2587435 63.7555432 -73.2587435 63.7555432 -70 63 C-62.89749682 58.06630522 -57.00343917 51.05413729 -50.96657944 44.88891792 C-47.88182494 41.74267222 -44.78116048 38.61213866 -41.68359375 35.47851562 C-37.76049809 31.50742505 -33.84221328 27.53186904 -29.93896484 23.54125977 C-26.76561081 20.29771105 -23.57784999 17.06896389 -20.37994766 13.84962273 C-19.16807503 12.62416822 -17.9616328 11.3933184 -16.76082993 10.15701485 C-15.08577635 8.43375154 -13.39297095 6.73000862 -11.69482422 5.02954102 C-11.20532288 4.51689697 -10.71582153 4.00425293 -10.21148682 3.47607422 C-6.8473214 0.16082277 -4.68327274 -0.66614341 0 0 Z " fill="#353535" transform="translate(203,93)"/>
<path d="M0 0 C4.75734783 2.42531458 7.71438001 5.15448563 10 10 C10.44022506 14.98334771 9.73286664 18.09801029 6.5625 22 C2.44010388 25.2174799 -0.37992201 25.39606128 -5.51953125 25.3515625 C-8 25 -8 25 -11 22.75 C-14.14630527 18.42383025 -15.56520054 15.66920879 -15.4609375 10.1015625 C-14.60803882 6.21292275 -11.90176501 3.59354645 -9 1 C-5.89046621 -0.5547669 -3.43733239 -0.28644437 0 0 Z " fill="#F5F5F5" transform="translate(193,252)"/>
<path d="M0 0 C2.70334515 1.35851072 4.15449837 2.76243626 6.06640625 5.1015625 C6.659375 5.81183594 7.25234375 6.52210937 7.86328125 7.25390625 C10.68886544 10.96818224 10.44831116 13.40130468 9.890625 17.90625 C8.81525312 22.13458296 5.8587037 24.08445429 2.44140625 26.4765625 C-0.90154075 27.55810418 -3.17235447 27.63222774 -6.68359375 27.1640625 C-10.84960638 24.73644117 -14.33298283 21.60774595 -17.68359375 18.1640625 C-15.625498 13.69720527 -12.6547972 10.46327185 -9.37109375 6.8515625 C-8.80197266 6.19349609 -8.23285156 5.53542969 -7.64648438 4.85742188 C-3.41562087 0.20881525 -3.41562087 0.20881525 0 0 Z " fill="#F4F4F4" transform="translate(232.68359375,44.8359375)"/>
<path d="M0 0 C1.32 0.66 2.64 1.32 4 2 C3.40075776 6.19469571 2.42500059 10.00999834 1 14 C1.60328125 13.61585938 2.2065625 13.23171875 2.828125 12.8359375 C3.62734375 12.35382813 4.4265625 11.87171875 5.25 11.375 C6.03890625 10.88773438 6.8278125 10.40046875 7.640625 9.8984375 C10 9 10 9 12.296875 9.8515625 C12.85890625 10.23054687 13.4209375 10.60953125 14 11 C13.33501617 15.38889325 11.81242323 18.9811485 10 23 C10.59167969 22.62746094 11.18335937 22.25492188 11.79296875 21.87109375 C12.58316406 21.39800781 13.37335938 20.92492187 14.1875 20.4375 C14.96480469 19.96183594 15.74210937 19.48617187 16.54296875 18.99609375 C19.48360967 17.80394203 21.00446363 18.11144836 24 19 C23.49785092 23.56090877 23.49785092 23.56090877 21.29760742 25.50146484 C20.57420166 25.90059082 19.8507959 26.2997168 19.10546875 26.7109375 C18.31462891 27.15050781 17.52378906 27.59007812 16.70898438 28.04296875 C15.87689453 28.48253906 15.04480469 28.92210937 14.1875 29.375 C13.36701172 29.83777344 12.54652344 30.30054688 11.70117188 30.77734375 C5.58881514 34.09873792 5.58881514 34.09873792 2.73168945 33.61962891 C2.16023193 33.41515137 1.58877441 33.21067383 1 33 C1.47939368 28.28596212 1.96834048 24.33420699 4 20 C3.48050781 20.37253906 2.96101563 20.74507812 2.42578125 21.12890625 C-3.34133791 25.04116638 -3.34133791 25.04116638 -7 24.8125 C-7.66 24.544375 -8.32 24.27625 -9 24 C-8.43646577 18.63598902 -7.12448259 14.15702638 -5.0625 9.1875 C-4.79759766 8.52041016 -4.53269531 7.85332031 -4.25976562 7.16601562 C-3.1018022 4.31851748 -2.19493035 2.19493035 0 0 Z " fill="#F6F6F6" transform="translate(65,222)"/>
<path d="M0 0 C2.36328125 0.375 2.36328125 0.375 3.36328125 1.375 C3.90239457 5.02179466 4.16406057 8.70354329 4.48828125 12.375 C4.63716797 13.92960937 4.63716797 13.92960937 4.7890625 15.515625 C4.87800781 16.50046875 4.96695313 17.4853125 5.05859375 18.5 C5.14125488 19.41007812 5.22391602 20.32015625 5.30908203 21.2578125 C5.32696777 21.95648438 5.34485352 22.65515625 5.36328125 23.375 C4.36328125 24.375 4.36328125 24.375 1.86328125 24.5 C-0.63671875 24.375 -0.63671875 24.375 -1.63671875 23.375 C-1.87035756 21.52608054 -2.0497551 19.67011969 -2.19921875 17.8125 C-2.32490234 16.29462891 -2.32490234 16.29462891 -2.453125 14.74609375 C-2.51371094 13.96363281 -2.57429688 13.18117188 -2.63671875 12.375 C-3.21421875 13.344375 -3.79171875 14.31375 -4.38671875 15.3125 C-6.63671875 18.375 -6.63671875 18.375 -8.57421875 19.5625 C-11.98921781 19.25204554 -13.46931618 16.84343071 -15.63671875 14.375 C-15.62511719 15.15746094 -15.61351562 15.93992187 -15.6015625 16.74609375 C-15.59253906 17.75800781 -15.58351562 18.76992188 -15.57421875 19.8125 C-15.56261719 20.82183594 -15.55101562 21.83117187 -15.5390625 22.87109375 C-15.63671875 25.375 -15.63671875 25.375 -16.63671875 26.375 C-18.3028899 26.41563832 -19.9705997 26.417721 -21.63671875 26.375 C-21.99955015 22.56327189 -22.35053312 18.75054607 -22.69921875 14.9375 C-22.80298828 13.84888672 -22.90675781 12.76027344 -23.01367188 11.63867188 C-23.10712891 10.60419922 -23.20058594 9.56972656 -23.296875 8.50390625 C-23.38590088 7.54556885 -23.47492676 6.58723145 -23.56665039 5.59985352 C-23.58977295 4.86565186 -23.61289551 4.1314502 -23.63671875 3.375 C-22.63671875 2.375 -22.63671875 2.375 -20.3046875 2.0625 C-17.63671875 2.375 -17.63671875 2.375 -15.6875 4.125 C-15.11386719 4.8675 -14.54023438 5.61 -13.94921875 6.375 C-12.88196319 7.7380581 -11.78487192 9.07935109 -10.63671875 10.375 C-9.97671875 10.375 -9.31671875 10.375 -8.63671875 10.375 C-7.08719885 7.83033388 -5.73745354 5.20751756 -4.3671875 2.5625 C-2.63671875 0.375 -2.63671875 0.375 0 0 Z " fill="#F8F8F8" transform="translate(170.63671875,257.625)"/>
<path d="M0 0 C2.375 1.4375 2.375 1.4375 4 4 C4.3839239 6.53558534 4.56247553 8.99905577 4.62890625 11.5625 C5.0695537 14.45685799 6.20528098 15.74212768 8 18 C7.6875 20.25 7.6875 20.25 7 22 C5.68 22.33 4.36 22.66 3 23 C2.443125 22.175 1.88625 21.35 1.3125 20.5 C-0.74927133 17.7254586 -0.74927133 17.7254586 -3.75 17.6875 C-4.4925 17.790625 -5.235 17.89375 -6 18 C-5.79375 18.94875 -5.5875 19.8975 -5.375 20.875 C-5.25125 21.90625 -5.1275 22.9375 -5 24 C-5.66 24.66 -6.32 25.32 -7 26 C-8.32 26 -9.64 26 -11 26 C-11.84357963 22.940229 -12.6730202 19.8767954 -13.5 16.8125 C-13.85771484 15.51602539 -13.85771484 15.51602539 -14.22265625 14.19335938 C-14.44824219 13.35224609 -14.67382812 12.51113281 -14.90625 11.64453125 C-15.11572266 10.87471924 -15.32519531 10.10490723 -15.54101562 9.31176758 C-16.03538729 6.82176477 -16.07833519 4.53218501 -16 2 C-10.39346792 -0.25024076 -6.02496376 -1.77204816 0 0 Z " fill="#F5F5F5" transform="translate(125,21)"/>
<path d="M0 0 C2.47675279 0.96608424 3.74311573 1.53453551 5.04907227 3.90087891 C5.30229248 4.66835449 5.5555127 5.43583008 5.81640625 6.2265625 C6.10443115 7.08499756 6.39245605 7.94343262 6.68920898 8.82788086 C6.97739502 9.75093018 7.26558105 10.67397949 7.5625 11.625 C7.86551025 12.57705322 8.16852051 13.52910645 8.48071289 14.51000977 C17.48139977 43.52413194 15.52210604 72.16545103 3 100 C2.01 100 1.02 100 0 100 C0.67439899 93.88825912 2.26033997 88.20026447 4 82.3125 C4.54216217 80.45457161 5.08384735 78.59650394 5.625 76.73828125 C5.98464844 75.51685425 5.98464844 75.51685425 6.3515625 74.27075195 C6.56554687 73.52140381 6.77953125 72.77205566 7 72 C7.18771973 71.39824951 7.37543945 70.79649902 7.56884766 70.17651367 C8.20863619 66.94677708 8.22334098 63.71836413 8.2734375 60.4375 C8.28582962 59.6975177 8.29822174 58.9575354 8.31098938 58.19512939 C8.34338905 55.79670735 8.36219447 53.39860459 8.375 51 C8.37956207 50.18720581 8.38412415 49.37441162 8.38882446 48.5369873 C8.41807378 34.02717287 6.63730883 21.2954255 1.33203125 7.734375 C0 4 0 4 0 0 Z " fill="#E5E5E5" transform="translate(260,100)"/>
<path d="M0 0 C0.66 0 1.32 0 2 0 C1.3533859 5.94076707 -0.20889144 11.37235087 -2 17.0625 C-2.54520808 18.80227957 -3.08696752 20.54314423 -3.625 22.28515625 C-3.86476563 23.04707275 -4.10453125 23.80898926 -4.3515625 24.59399414 C-6.53667815 32.70179336 -6.28551473 40.98323018 -6.3125 49.3125 C-6.31511841 50.07877716 -6.31773682 50.84505432 -6.32043457 51.634552 C-6.3258548 66.3928687 -4.44396864 78.91226035 1.265625 92.703125 C2.07944482 95.24847634 2.13185555 97.34405257 2 100 C-1 99 -1 99 -2.5 96.18359375 C-3.01654609 94.94164906 -3.51540066 93.69225494 -4 92.4375 C-4.26200195 91.76928223 -4.52400391 91.10106445 -4.79394531 90.41259766 C-7.53103238 83.09608783 -8.81810551 75.69405487 -10 68 C-10.20496094 66.88753906 -10.40992187 65.77507812 -10.62109375 64.62890625 C-14.31025194 43.84240803 -10.86648693 21.22627693 -2 2 C-1.34 1.34 -0.68 0.68 0 0 Z " fill="#E8E8E8" transform="translate(38,100)"/>
<path d="M0 0 C5.72911994 1.50766314 11.41995145 4.21648164 16 8 C16 9.32 16 10.64 16 12 C13.42846873 12.93510228 11.72243037 13.32710903 9.1796875 12.17578125 C7.44016645 11.13861911 5.71922872 10.07046317 4 9 C3.34 9 2.68 9 2 9 C2 9.66 2 10.32 2 11 C5.465 12.98 5.465 12.98 9 15 C8.67 16.32 8.34 17.64 8 19 C6.375 19.6875 6.375 19.6875 4 20 C0.75 18.5625 0.75 18.5625 -2 17 C-2.33 17.99 -2.66 18.98 -3 20 C-2.113125 20.268125 -1.22625 20.53625 -0.3125 20.8125 C2.76877548 21.91710819 5.26221405 23.22849144 8 25 C7.67 26.32 7.34 27.64 7 29 C5.41796875 29.69921875 5.41796875 29.69921875 3 30 C-0.19921875 28.70703125 -0.19921875 28.70703125 -3.6875 26.8125 C-4.84636719 26.20019531 -6.00523437 25.58789062 -7.19921875 24.95703125 C-10 23 -10 23 -10.8034668 21.14599609 C-11.05900744 18.35568278 -10.33456339 17.12362058 -8.9453125 14.70703125 C-8.49542969 13.91232422 -8.04554688 13.11761719 -7.58203125 12.29882812 C-7.10121094 11.47833984 -6.62039062 10.65785156 -6.125 9.8125 C-5.41537109 8.56436523 -5.41537109 8.56436523 -4.69140625 7.29101562 C-1.21535714 1.21535714 -1.21535714 1.21535714 0 0 Z " fill="#F5F5F5" transform="translate(204,28)"/>
<path d="M0 0 C0.52207031 0.23074219 1.04414062 0.46148438 1.58203125 0.69921875 C1.91203125 2.01921875 2.24203125 3.33921875 2.58203125 4.69921875 C1.12665557 5.53770679 -0.33237248 6.36985809 -1.79296875 7.19921875 C-3.01113281 7.8953125 -3.01113281 7.8953125 -4.25390625 8.60546875 C-6.41796875 9.69921875 -6.41796875 9.69921875 -8.41796875 9.69921875 C-7.42796875 11.18421875 -7.42796875 11.18421875 -6.41796875 12.69921875 C-5.67546875 12.18359375 -4.93296875 11.66796875 -4.16796875 11.13671875 C-1.41796875 9.69921875 -1.41796875 9.69921875 0.89453125 10.01171875 C1.45140625 10.23859375 2.00828125 10.46546875 2.58203125 10.69921875 C2.91203125 12.01921875 3.24203125 13.33921875 3.58203125 14.69921875 C-2.16796875 18.69921875 -2.16796875 18.69921875 -4.41796875 18.69921875 C-4.08796875 19.35921875 -3.75796875 20.01921875 -3.41796875 20.69921875 C0.76065757 19.3820079 0.76065757 19.3820079 4.70703125 17.51171875 C7.05765271 16.49311612 8.21551907 16.85403583 10.58203125 17.69921875 C10.91203125 19.01921875 11.24203125 20.33921875 11.58203125 21.69921875 C9.17509547 23.09428352 6.75904326 24.46491258 4.33203125 25.82421875 C3.65011719 26.22253906 2.96820313 26.62085937 2.265625 27.03125 C0.25390625 28.14453125 0.25390625 28.14453125 -3.41796875 29.69921875 C-8.49683109 28.07045341 -9.93586901 23.77300794 -12.23046875 19.32421875 C-12.65005859 18.5559375 -13.06964844 17.78765625 -13.50195312 16.99609375 C-13.89318359 16.25101563 -14.28441406 15.5059375 -14.6875 14.73828125 C-15.22274292 13.72048584 -15.22274292 13.72048584 -15.76879883 12.68212891 C-16.57050006 10.23330701 -16.40819448 9.06335181 -15.41796875 6.69921875 C-12.6171875 4.7421875 -12.6171875 4.7421875 -9.10546875 2.88671875 C-7.95433594 2.26152344 -6.80320312 1.63632812 -5.6171875 0.9921875 C-2.41796875 -0.30078125 -2.41796875 -0.30078125 0 0 Z " fill="#F5F5F5" transform="translate(96.41796875,28.30078125)"/>
<path d="M0 0 C1.32 0.66 2.64 1.32 4 2 C3.84633143 4.68919992 3.55923051 6.45167371 1.59765625 8.375 C0.06670067 9.58535547 -1.46654535 10.79281229 -3 12 C-3 12.66 -3 13.32 -3 14 C-0.53199953 12.84826645 1.04783565 11.95216435 3 10 C5.625 10.375 5.625 10.375 8 11 C7.49019669 14.77254453 6.79299818 16.44987123 4 19 C4 19.66 4 20.32 4 21 C6.92101014 19.80995883 8.29946228 18.67807805 10.5 16.3125 C11.325 15.549375 12.15 14.78625 13 14 C15.3125 14.1875 15.3125 14.1875 17 15 C17 19.44315505 16.27873289 20.25645318 13.28515625 23.31054688 C12.77855469 23.80619141 12.27195313 24.30183594 11.75 24.8125 C11.25886719 25.32748047 10.76773438 25.84246094 10.26171875 26.37304688 C6.67265437 29.947755 6.67265437 29.947755 3.98828125 30.15625 C1.0360476 28.43943043 -1.21905077 26.13215082 -3.5625 23.6875 C-4.04396484 23.20087891 -4.52542969 22.71425781 -5.02148438 22.21289062 C-7.56545454 19.61293212 -9.90269814 16.97294304 -12 14 C-10.41332422 10.09714233 -7.86649519 7.66479018 -4.875 4.75 C-3.96492187 3.85796875 -3.05484375 2.9659375 -2.1171875 2.046875 C-1.41851562 1.37140625 -0.71984375 0.6959375 0 0 Z " fill="#F4F4F4" transform="translate(232,222)"/>
<path d="M0 0 C6.12347109 0.7310026 12.11936382 2.17046874 18 4 C17.67 5.65 17.34 7.3 17 9 C15.3954444 8.85851011 13.79136233 8.71164314 12.1875 8.5625 C11.29417969 8.48128906 10.40085938 8.40007812 9.48046875 8.31640625 C7 8 7 8 4 7 C4.33 7.99 4.66 8.98 5 10 C8.51190809 11.22969878 8.51190809 11.22969878 12 12 C12 13.65 12 15.3 12 17 C4.25 17.125 4.25 17.125 2 16 C1.67 17.32 1.34 18.64 1 20 C1.68707031 20.04898437 2.37414062 20.09796875 3.08203125 20.1484375 C3.98308594 20.22320312 4.88414063 20.29796875 5.8125 20.375 C6.70582031 20.44460938 7.59914063 20.51421875 8.51953125 20.5859375 C11 21 11 21 14 23 C13.67 24.32 13.34 25.64 13 27 C7.1352807 27.2549878 1.68429498 26.4918552 -4 25 C-4.33 24.67 -4.66 24.34 -5 24 C-4.95199721 17.603628 -4.71624385 4.71624385 0 0 Z " fill="#F6F6F6" transform="translate(118,255)"/>
<path d="M0 0 C3.74461999 1.13675964 5.82013144 2.22021517 8.5 5.0625 C8.5 6.3825 8.5 7.7025 8.5 9.0625 C6.85 9.3925 5.2 9.7225 3.5 10.0625 C2.84 9.0725 2.18 8.0825 1.5 7.0625 C0.51 7.0625 -0.48 7.0625 -1.5 7.0625 C-0.72476484 10.36339831 -0.72476484 10.36339831 2.625 12.3125 C5.5 15.0625 5.5 15.0625 5.6875 18.625 C4.28101843 22.69639403 3.31482454 24.07215676 -0.5 26.0625 C-4.95059454 26.1419749 -6.89542587 25.54878789 -10.375 22.75 C-13.40137858 18.92252121 -13.40137858 18.92252121 -13.5 16.0625 C-12.84 15.4025 -12.18 14.7425 -11.5 14.0625 C-9.5 14.1875 -9.5 14.1875 -7.5 15.0625 C-6.25 17.125 -6.25 17.125 -5.5 19.0625 C-4.18 19.0625 -2.86 19.0625 -1.5 19.0625 C-2.22906236 15.88223472 -2.22906236 15.88223472 -5 14.3125 C-7.5 12.0625 -7.5 12.0625 -8.625 8.625 C-8.5 5.0625 -8.5 5.0625 -6.5 2.0625 C-3.5 0.0625 -3.5 0.0625 0 0 Z " fill="#F3F3F3" transform="translate(104.5,248.9375)"/>
<path d="M0 0 C12.64228779 -0.20067123 12.64228779 -0.20067123 18 1 C18.66 1.66 19.32 2.32 20 3 C19.625 5.125 19.625 5.125 19 7 C17.22925083 7.02705729 15.45838289 7.04642195 13.6875 7.0625 C12.70136719 7.07410156 11.71523437 7.08570313 10.69921875 7.09765625 C8 7 8 7 5 6 C5 7.32 5 8.64 5 10 C6.27875 9.979375 7.5575 9.95875 8.875 9.9375 C12.75 9.875 12.75 9.875 15 11 C14.67 12.65 14.34 14.3 14 16 C10.7 16 7.4 16 4 16 C4.020625 17.11375 4.04125 18.2275 4.0625 19.375 C4 23 4 23 3 25 C1.35 24.67 -0.3 24.34 -2 24 C-2.26305952 15.7574683 -1.60614551 8.08808989 0 0 Z " fill="#F5F5F5" transform="translate(156,17)"/>
<path d="M0 0 C1.65 0 3.3 0 5 0 C5.69062579 2.07187736 6.37975701 4.14426169 7.0625 6.21875 C7.72545853 8.18552698 8.41571018 10.14320299 9.125 12.09375 C9.49625 13.1353125 9.8675 14.176875 10.25 15.25 C10.60578125 16.22453125 10.9615625 17.1990625 11.328125 18.203125 C12.0532272 21.22157371 11.84177366 23.04300021 11 26 C5.29446005 26.47852916 0.9563347 24.80734194 -4.25 22.75 C-5.0646875 22.44964844 -5.879375 22.14929688 -6.71875 21.83984375 C-7.88664062 21.38544922 -7.88664062 21.38544922 -9.078125 20.921875 C-9.78356445 20.64956055 -10.48900391 20.37724609 -11.21582031 20.09667969 C-13.4375075 18.73107777 -14.04244185 17.38460471 -15 15 C-14.34 14.01 -13.68 13.02 -13 12 C-6.79522136 13.93624298 -0.89174281 16.25609141 5 19 C4.55527344 17.87980469 4.11054687 16.75960937 3.65234375 15.60546875 C3.08023914 14.1330028 2.50865135 12.66033597 1.9375 11.1875 C1.64294922 10.44951172 1.34839844 9.71152344 1.04492188 8.95117188 C-1.11328125 3.33984375 -1.11328125 3.33984375 0 0 Z " fill="#F4F4F4" transform="translate(66,45)"/>
<path d="M0 0 C1.99954746 -0.04254356 4.00041636 -0.04080783 6 0 C9.08968504 3.08968504 8.05700825 11.91692947 8.06811523 15.99560547 C8.05996047 18.9972695 8.03559038 21.99854445 8 25 C5.07217445 25.871781 3.5435353 26.23230408 0.68823242 25.01196289 C-0.08157959 24.5039917 -0.8513916 23.99602051 -1.64453125 23.47265625 C-2.48564453 22.92802734 -3.32675781 22.38339844 -4.19335938 21.82226562 C-5.48983398 20.95118164 -5.48983398 20.95118164 -6.8125 20.0625 C-8.13797852 19.1972168 -8.13797852 19.1972168 -9.49023438 18.31445312 C-11.66919955 16.88929212 -13.83820713 15.45102302 -16 14 C-15.6875 12.0625 -15.6875 12.0625 -15 10 C-14.01 9.67 -13.02 9.34 -12 9 C-9.65717548 10.23414044 -7.51707416 11.49246493 -5.3125 12.9375 C-4.70599609 13.32357422 -4.09949219 13.70964844 -3.47460938 14.10742188 C-1.97719735 15.06246419 -0.48780599 16.03006086 1 17 C1.10469338 11.24186425 0.74016701 5.70985978 0 0 Z " fill="#F2F2F2" transform="translate(214,238)"/>
<path d="M0 0 C1.9375 0.8125 1.9375 0.8125 4 2 C4.33 2.99 4.66 3.98 5 5 C9.455 4.505 9.455 4.505 14 4 C13.4740625 4.9590625 13.4740625 4.9590625 12.9375 5.9375 C11.65009387 10.1430267 12.3091153 13.71464763 13 18 C11.741875 18.103125 10.48375 18.20625 9.1875 18.3125 C5.86042583 18.69609156 5.86042583 18.69609156 3.125 20.5625 C2.75375 21.036875 2.3825 21.51125 2 22 C1.34 22 0.68 22 0 22 C-0.226875 20.906875 -0.45375 19.81375 -0.6875 18.6875 C-2.17913222 14.49672376 -3.16415357 13.91792322 -7 12 C-7 11.34 -7 10.68 -7 10 C-5.02 9.34 -3.04 8.68 -1 8 C-0.67 5.36 -0.34 2.72 0 0 Z " fill="#F4F4F4" transform="translate(248,73)"/>
<path d="M0 0 C2.49361571 1.20381448 4.68143083 2.45428722 7 4 C9.33199388 4.07905064 11.66832622 4.08798769 14 4 C13.4740625 4.9590625 13.4740625 4.9590625 12.9375 5.9375 C11.65009387 10.1430267 12.3091153 13.71464763 13 18 C11.9275 17.9175 10.855 17.835 9.75 17.75 C5.96533931 17.62414331 5.96533931 17.62414331 3.6875 20 C3.130625 20.66 2.57375 21.32 2 22 C1.34 22 0.68 22 0 22 C-0.33 19.36 -0.66 16.72 -1 14 C-2.98 13.34 -4.96 12.68 -7 12 C-7 11.34 -7 10.68 -7 10 C-5.02 9.34 -3.04 8.68 -1 8 C-1.020625 7.05125 -1.04125 6.1025 -1.0625 5.125 C-1 2 -1 2 0 0 Z " fill="#F4F4F4" transform="translate(248,204)"/>
<path d="M0 0 C0.66 0 1.32 0 2 0 C2.04125 1.093125 2.0825 2.18625 2.125 3.3125 C2.60565398 7.24996333 2.60565398 7.24996333 6.0625 8.9375 C7.031875 9.288125 8.00125 9.63875 9 10 C8.67 10.99 8.34 11.98 8 13 C7.360625 13.2475 6.72125 13.495 6.0625 13.75 C3.58449544 14.95123876 3.58449544 14.95123876 2.75 18.625 C2.5025 19.73875 2.255 20.8525 2 22 C-2 20 -2 20 -3.875 18.875 C-6.65367042 17.73084159 -9.02626695 17.86483032 -12 18 C-11.649375 17.278125 -11.29875 16.55625 -10.9375 15.8125 C-9.87241022 12.61723066 -10.09935771 11.19318629 -11 8 C-11.2784375 6.8553125 -11.2784375 6.8553125 -11.5625 5.6875 C-11.706875 5.130625 -11.85125 4.57375 -12 4 C-10.7625 4.0825 -9.525 4.165 -8.25 4.25 C-4.92190611 4.2735201 -4.28576397 4.24064334 -1.625 2 C-1.08875 1.34 -0.5525 0.68 0 0 Z " fill="#F5F5F5" transform="translate(50,73)"/>
<path d="M0 0 C0.66 0 1.32 0 2 0 C2.04125 1.093125 2.0825 2.18625 2.125 3.3125 C2.60565398 7.24996333 2.60565398 7.24996333 6.0625 8.9375 C7.031875 9.288125 8.00125 9.63875 9 10 C9 10.66 9 11.32 9 12 C8.030625 12.350625 7.06125 12.70125 6.0625 13.0625 C2.60565398 14.75003667 2.60565398 14.75003667 2.125 18.6875 C2.08375 19.780625 2.0425 20.87375 2 22 C-0.46800047 20.84826645 -2.04783565 19.95216435 -4 18 C-6.68839385 17.73008094 -9.29141936 17.91262643 -12 18 C-11.649375 17.29875 -11.29875 16.5975 -10.9375 15.875 C-9.51871685 11.52406501 -10.58522143 8.24433571 -12 4 C-10.7625 4.0825 -9.525 4.165 -8.25 4.25 C-4.92190611 4.2735201 -4.28576397 4.24064334 -1.625 2 C-1.08875 1.34 -0.5525 0.68 0 0 Z " fill="#F8F8F8" transform="translate(50,204)"/>
<path d="M0 0 C1.67542976 0.28604898 3.34385343 0.61781233 5 1 C4.38334864 6.39392739 3.12077204 11.28395283 1.4375 16.4375 C1.20353516 17.16904297 0.96957031 17.90058594 0.72851562 18.65429688 C0.15732778 20.43780179 -0.42063123 22.21913583 -1 24 C-2.65 24.33 -4.3 24.66 -6 25 C-7.89147061 19.73866796 -5.82454982 15.28822103 -4.125 10.25 C-3.84269531 9.37472656 -3.56039062 8.49945313 -3.26953125 7.59765625 C-1.16530458 1.16530458 -1.16530458 1.16530458 0 0 Z " fill="#F4F4F4" transform="translate(187,22)"/>
<path d="M0 0 C1.66611905 -0.042721 3.33382885 -0.04063832 5 0 C7.5080113 2.5080113 6.48799092 9.11104019 6.625 12.5 C6.6765625 13.58410156 6.728125 14.66820312 6.78125 15.78515625 C6.82507813 16.81511719 6.86890625 17.84507813 6.9140625 18.90625 C6.9548291 19.85822266 6.9955957 20.81019531 7.03759766 21.79101562 C7 24 7 24 6 25 C4.33382885 25.04063832 2.66611905 25.042721 1 25 C0.17463655 19.28094617 -0.12753701 13.7732851 -0.0625 8 C-0.05798828 7.22527344 -0.05347656 6.45054688 -0.04882812 5.65234375 C-0.03719758 3.76819476 -0.01926906 1.88408635 0 0 Z " fill="#F4F4F4" transform="translate(139,17)"/>
<path d="M0 0 C1.32 0.66 2.64 1.32 4 2 C3.4462522 7.10454793 0.97407204 10.96575557 -1.5625 15.3125 C-1.98724609 16.05306641 -2.41199219 16.79363281 -2.84960938 17.55664062 C-3.89351653 19.37468118 -4.94592192 21.18783748 -6 23 C-7.65 22.67 -9.3 22.34 -11 22 C-11 18.01012174 -10.78445529 17.14092061 -8.84765625 13.92578125 C-8.40099609 13.17619141 -7.95433594 12.42660156 -7.49414062 11.65429688 C-7.02169922 10.88150391 -6.54925781 10.10871094 -6.0625 9.3125 C-5.59392578 8.52810547 -5.12535156 7.74371094 -4.64257812 6.93554688 C-1.19319873 1.19319873 -1.19319873 1.19319873 0 0 Z " fill="#F5F5F5" transform="translate(92,243)"/>
<path d="M0 0 C3 0.875 3 0.875 4.9375 2.5625 C6.38550221 5.71403422 5.929926 7.58449263 5 10.875 C3 12.875 3 12.875 -0.4375 13.25 C-4 12.875 -4 12.875 -6 11.3125 C-7.43135511 7.82357191 -6.933966 5.47744028 -6 1.875 C-3 -0.125 -3 -0.125 0 0 Z " fill="#3B3B3B" transform="translate(191,258.125)"/>
<path d="M0 0 C3.875 1.875 3.875 1.875 5 3 C5.3125 6.375 5.3125 6.375 5 10 C2.89172636 12.42061048 1.59654522 12.9127007 -1.5625 13.375 C-4 13 -4 13 -5.875 11.75 C-7 10 -7 10 -6.76171875 8.09375 C-5.87683911 5.66146545 -4.81669372 4.50924519 -2.9375 2.75 C-2.38964844 2.22921875 -1.84179688 1.7084375 -1.27734375 1.171875 C-0.64505859 0.59179688 -0.64505859 0.59179688 0 0 Z " fill="#3C3C3C" transform="translate(231,53)"/>
<path d="M0 0 C-0.33 1.65 -0.66 3.3 -1 5 C-2.65 5.33 -4.3 5.66 -6 6 C-6.33 4.02 -6.66 2.04 -7 0 C-4.3333581 -1.33332095 -2.83319697 -0.67102033 0 0 Z " fill="#3E3E3E" transform="translate(123,27)"/>
</svg>
